<?xml version="1.0" encoding="utf-8" standalone="no"?>
<!DOCTYPE svg PUBLIC "-//W3C//DTD SVG 1.1//EN"
  "http://www.w3.org/Graphics/SVG/1.1/DTD/svg11.dtd">
<svg xmlns:xlink="http://www.w3.org/1999/xlink" width="460.8pt" height="288pt" viewBox="0 0 460.8 288" xmlns="http://www.w3.org/2000/svg" version="1.1">
 <metadata>
  <rdf:RDF xmlns:dc="http://purl.org/dc/elements/1.1/" xmlns:cc="http://creativecommons.org/ns#" xmlns:rdf="http://www.w3.org/1999/02/22-rdf-syntax-ns#">
   <cc:Work>
    <dc:type rdf:resource="http://purl.org/dc/dcmitype/StillImage"/>
    <dc:date>2025-05-13T18:53:32.972296</dc:date>
    <dc:format>image/svg+xml</dc:format>
    <dc:creator>
     <cc:Agent>
      <dc:title>Matplotlib v3.10.1, https://matplotlib.org/</dc:title>
     </cc:Agent>
    </dc:creator>
   </cc:Work>
  </rdf:RDF>
 </metadata>
 <defs>
  <style type="text/css">*{stroke-linejoin: round; stroke-linecap: butt}</style>
 </defs>
 <g id="figure_1">
  <g id="patch_1">
   <path d="M 0 288 
L 460.8 288 
L 460.8 0 
L 0 0 
z
" style="fill: #ffffff"/>
  </g>
  <g id="axes_1">
   <g id="patch_2">
    <path d="M 55.91 244.24 
L 411.235 244.24 
L 411.235 10.8 
L 55.91 10.8 
z
" style="fill: #ffffff"/>
   </g>
   <g id="patch_3">
    <path d="M 72.061136 244.24 
L 77.108366 244.24 
L 77.108366 133.078095 
L 72.061136 133.078095 
z
" clip-path="url(#p2d0bc0f315)" style="opacity: 0.6"/>
   </g>
   <g id="patch_4">
    <path d="M 77.108366 244.24 
L 82.155597 244.24 
L 82.155597 231.888677 
L 77.108366 231.888677 
z
" clip-path="url(#p2d0bc0f315)" style="opacity: 0.6"/>
   </g>
   <g id="patch_5">
    <path d="M 82.155597 244.24 
L 87.202827 244.24 
L 87.202827 244.24 
L 82.155597 244.24 
z
" clip-path="url(#p2d0bc0f315)" style="opacity: 0.6"/>
   </g>
   <g id="patch_6">
    <path d="M 87.202827 244.24 
L 92.250057 244.24 
L 92.250057 244.24 
L 87.202827 244.24 
z
" clip-path="url(#p2d0bc0f315)" style="opacity: 0.6"/>
   </g>
   <g id="patch_7">
    <path d="M 92.250057 244.24 
L 97.297287 244.24 
L 97.297287 219.537354 
L 92.250057 219.537354 
z
" clip-path="url(#p2d0bc0f315)" style="opacity: 0.6"/>
   </g>
   <g id="patch_8">
    <path d="M 97.297287 244.24 
L 102.344517 244.24 
L 102.344517 244.24 
L 97.297287 244.24 
z
" clip-path="url(#p2d0bc0f315)" style="opacity: 0.6"/>
   </g>
   <g id="patch_9">
    <path d="M 102.344517 244.24 
L 107.391747 244.24 
L 107.391747 133.078095 
L 102.344517 133.078095 
z
" clip-path="url(#p2d0bc0f315)" style="opacity: 0.6"/>
   </g>
   <g id="patch_10">
    <path d="M 107.391747 244.24 
L 112.438977 244.24 
L 112.438977 133.078095 
L 107.391747 133.078095 
z
" clip-path="url(#p2d0bc0f315)" style="opacity: 0.6"/>
   </g>
   <g id="patch_11">
    <path d="M 112.438977 244.24 
L 117.486207 244.24 
L 117.486207 194.834709 
L 112.438977 194.834709 
z
" clip-path="url(#p2d0bc0f315)" style="opacity: 0.6"/>
   </g>
   <g id="patch_12">
    <path d="M 117.486207 244.24 
L 122.533437 244.24 
L 122.533437 145.429418 
L 117.486207 145.429418 
z
" clip-path="url(#p2d0bc0f315)" style="opacity: 0.6"/>
   </g>
   <g id="patch_13">
    <path d="M 122.533437 244.24 
L 127.580668 244.24 
L 127.580668 219.537354 
L 122.533437 219.537354 
z
" clip-path="url(#p2d0bc0f315)" style="opacity: 0.6"/>
   </g>
   <g id="patch_14">
    <path d="M 127.580668 244.24 
L 132.627898 244.24 
L 132.627898 182.483386 
L 127.580668 182.483386 
z
" clip-path="url(#p2d0bc0f315)" style="opacity: 0.6"/>
   </g>
   <g id="patch_15">
    <path d="M 132.627898 244.24 
L 137.675128 244.24 
L 137.675128 231.888677 
L 132.627898 231.888677 
z
" clip-path="url(#p2d0bc0f315)" style="opacity: 0.6"/>
   </g>
   <g id="patch_16">
    <path d="M 137.675128 244.24 
L 142.722358 244.24 
L 142.722358 182.483386 
L 137.675128 182.483386 
z
" clip-path="url(#p2d0bc0f315)" style="opacity: 0.6"/>
   </g>
   <g id="patch_17">
    <path d="M 142.722358 244.24 
L 147.769588 244.24 
L 147.769588 133.078095 
L 142.722358 133.078095 
z
" clip-path="url(#p2d0bc0f315)" style="opacity: 0.6"/>
   </g>
   <g id="patch_18">
    <path d="M 147.769588 244.24 
L 152.816818 244.24 
L 152.816818 207.186032 
L 147.769588 207.186032 
z
" clip-path="url(#p2d0bc0f315)" style="opacity: 0.6"/>
   </g>
   <g id="patch_19">
    <path d="M 152.816818 244.24 
L 157.864048 244.24 
L 157.864048 207.186032 
L 152.816818 207.186032 
z
" clip-path="url(#p2d0bc0f315)" style="opacity: 0.6"/>
   </g>
   <g id="patch_20">
    <path d="M 157.864048 244.24 
L 162.911278 244.24 
L 162.911278 182.483386 
L 157.864048 182.483386 
z
" clip-path="url(#p2d0bc0f315)" style="opacity: 0.6"/>
   </g>
   <g id="patch_21">
    <path d="M 162.911278 244.24 
L 167.958509 244.24 
L 167.958509 207.186032 
L 162.911278 207.186032 
z
" clip-path="url(#p2d0bc0f315)" style="opacity: 0.6"/>
   </g>
   <g id="patch_22">
    <path d="M 167.958509 244.24 
L 173.005739 244.24 
L 173.005739 194.834709 
L 167.958509 194.834709 
z
" clip-path="url(#p2d0bc0f315)" style="opacity: 0.6"/>
   </g>
   <g id="patch_23">
    <path d="M 173.005739 244.24 
L 178.052969 244.24 
L 178.052969 219.537354 
L 173.005739 219.537354 
z
" clip-path="url(#p2d0bc0f315)" style="opacity: 0.6"/>
   </g>
   <g id="patch_24">
    <path d="M 178.052969 244.24 
L 183.100199 244.24 
L 183.100199 108.37545 
L 178.052969 108.37545 
z
" clip-path="url(#p2d0bc0f315)" style="opacity: 0.6"/>
   </g>
   <g id="patch_25">
    <path d="M 183.100199 244.24 
L 188.147429 244.24 
L 188.147429 194.834709 
L 183.100199 194.834709 
z
" clip-path="url(#p2d0bc0f315)" style="opacity: 0.6"/>
   </g>
   <g id="patch_26">
    <path d="M 188.147429 244.24 
L 193.194659 244.24 
L 193.194659 182.483386 
L 188.147429 182.483386 
z
" clip-path="url(#p2d0bc0f315)" style="opacity: 0.6"/>
   </g>
   <g id="patch_27">
    <path d="M 193.194659 244.24 
L 198.241889 244.24 
L 198.241889 219.537354 
L 193.194659 219.537354 
z
" clip-path="url(#p2d0bc0f315)" style="opacity: 0.6"/>
   </g>
   <g id="patch_28">
    <path d="M 198.241889 244.24 
L 203.289119 244.24 
L 203.289119 207.186032 
L 198.241889 207.186032 
z
" clip-path="url(#p2d0bc0f315)" style="opacity: 0.6"/>
   </g>
   <g id="patch_29">
    <path d="M 203.289119 244.24 
L 208.336349 244.24 
L 208.336349 170.132063 
L 203.289119 170.132063 
z
" clip-path="url(#p2d0bc0f315)" style="opacity: 0.6"/>
   </g>
   <g id="patch_30">
    <path d="M 208.336349 244.24 
L 213.38358 244.24 
L 213.38358 170.132063 
L 208.336349 170.132063 
z
" clip-path="url(#p2d0bc0f315)" style="opacity: 0.6"/>
   </g>
   <g id="patch_31">
    <path d="M 213.38358 244.24 
L 218.43081 244.24 
L 218.43081 182.483386 
L 213.38358 182.483386 
z
" clip-path="url(#p2d0bc0f315)" style="opacity: 0.6"/>
   </g>
   <g id="patch_32">
    <path d="M 218.43081 244.24 
L 223.47804 244.24 
L 223.47804 157.780741 
L 218.43081 157.780741 
z
" clip-path="url(#p2d0bc0f315)" style="opacity: 0.6"/>
   </g>
   <g id="patch_33">
    <path d="M 223.47804 244.24 
L 228.52527 244.24 
L 228.52527 145.429418 
L 223.47804 145.429418 
z
" clip-path="url(#p2d0bc0f315)" style="opacity: 0.6"/>
   </g>
   <g id="patch_34">
    <path d="M 228.52527 244.24 
L 233.5725 244.24 
L 233.5725 182.483386 
L 228.52527 182.483386 
z
" clip-path="url(#p2d0bc0f315)" style="opacity: 0.6"/>
   </g>
   <g id="patch_35">
    <path d="M 233.5725 244.24 
L 238.61973 244.24 
L 238.61973 170.132063 
L 233.5725 170.132063 
z
" clip-path="url(#p2d0bc0f315)" style="opacity: 0.6"/>
   </g>
   <g id="patch_36">
    <path d="M 238.61973 244.24 
L 243.66696 244.24 
L 243.66696 170.132063 
L 238.61973 170.132063 
z
" clip-path="url(#p2d0bc0f315)" style="opacity: 0.6"/>
   </g>
   <g id="patch_37">
    <path d="M 243.66696 244.24 
L 248.71419 244.24 
L 248.71419 157.780741 
L 243.66696 157.780741 
z
" clip-path="url(#p2d0bc0f315)" style="opacity: 0.6"/>
   </g>
   <g id="patch_38">
    <path d="M 248.71419 244.24 
L 253.76142 244.24 
L 253.76142 182.483386 
L 248.71419 182.483386 
z
" clip-path="url(#p2d0bc0f315)" style="opacity: 0.6"/>
   </g>
   <g id="patch_39">
    <path d="M 253.76142 244.24 
L 258.808651 244.24 
L 258.808651 157.780741 
L 253.76142 157.780741 
z
" clip-path="url(#p2d0bc0f315)" style="opacity: 0.6"/>
   </g>
   <g id="patch_40">
    <path d="M 258.808651 244.24 
L 263.855881 244.24 
L 263.855881 219.537354 
L 258.808651 219.537354 
z
" clip-path="url(#p2d0bc0f315)" style="opacity: 0.6"/>
   </g>
   <g id="patch_41">
    <path d="M 263.855881 244.24 
L 268.903111 244.24 
L 268.903111 231.888677 
L 263.855881 231.888677 
z
" clip-path="url(#p2d0bc0f315)" style="opacity: 0.6"/>
   </g>
   <g id="patch_42">
    <path d="M 268.903111 244.24 
L 273.950341 244.24 
L 273.950341 133.078095 
L 268.903111 133.078095 
z
" clip-path="url(#p2d0bc0f315)" style="opacity: 0.6"/>
   </g>
   <g id="patch_43">
    <path d="M 273.950341 244.24 
L 278.997571 244.24 
L 278.997571 157.780741 
L 273.950341 157.780741 
z
" clip-path="url(#p2d0bc0f315)" style="opacity: 0.6"/>
   </g>
   <g id="patch_44">
    <path d="M 278.997571 244.24 
L 284.044801 244.24 
L 284.044801 194.834709 
L 278.997571 194.834709 
z
" clip-path="url(#p2d0bc0f315)" style="opacity: 0.6"/>
   </g>
   <g id="patch_45">
    <path d="M 284.044801 244.24 
L 289.092031 244.24 
L 289.092031 194.834709 
L 284.044801 194.834709 
z
" clip-path="url(#p2d0bc0f315)" style="opacity: 0.6"/>
   </g>
   <g id="patch_46">
    <path d="M 289.092031 244.24 
L 294.139261 244.24 
L 294.139261 182.483386 
L 289.092031 182.483386 
z
" clip-path="url(#p2d0bc0f315)" style="opacity: 0.6"/>
   </g>
   <g id="patch_47">
    <path d="M 294.139261 244.24 
L 299.186491 244.24 
L 299.186491 207.186032 
L 294.139261 207.186032 
z
" clip-path="url(#p2d0bc0f315)" style="opacity: 0.6"/>
   </g>
   <g id="patch_48">
    <path d="M 299.186491 244.24 
L 304.233722 244.24 
L 304.233722 157.780741 
L 299.186491 157.780741 
z
" clip-path="url(#p2d0bc0f315)" style="opacity: 0.6"/>
   </g>
   <g id="patch_49">
    <path d="M 304.233722 244.24 
L 309.280952 244.24 
L 309.280952 207.186032 
L 304.233722 207.186032 
z
" clip-path="url(#p2d0bc0f315)" style="opacity: 0.6"/>
   </g>
   <g id="patch_50">
    <path d="M 309.280952 244.24 
L 314.328182 244.24 
L 314.328182 182.483386 
L 309.280952 182.483386 
z
" clip-path="url(#p2d0bc0f315)" style="opacity: 0.6"/>
   </g>
   <g id="patch_51">
    <path d="M 314.328182 244.24 
L 319.375412 244.24 
L 319.375412 182.483386 
L 314.328182 182.483386 
z
" clip-path="url(#p2d0bc0f315)" style="opacity: 0.6"/>
   </g>
   <g id="patch_52">
    <path d="M 319.375412 244.24 
L 324.422642 244.24 
L 324.422642 133.078095 
L 319.375412 133.078095 
z
" clip-path="url(#p2d0bc0f315)" style="opacity: 0.6"/>
   </g>
   <g id="patch_53">
    <path d="M 324.422642 244.24 
L 329.469872 244.24 
L 329.469872 157.780741 
L 324.422642 157.780741 
z
" clip-path="url(#p2d0bc0f315)" style="opacity: 0.6"/>
   </g>
   <g id="patch_54">
    <path d="M 329.469872 244.24 
L 334.517102 244.24 
L 334.517102 145.429418 
L 329.469872 145.429418 
z
" clip-path="url(#p2d0bc0f315)" style="opacity: 0.6"/>
   </g>
   <g id="patch_55">
    <path d="M 334.517102 244.24 
L 339.564332 244.24 
L 339.564332 207.186032 
L 334.517102 207.186032 
z
" clip-path="url(#p2d0bc0f315)" style="opacity: 0.6"/>
   </g>
   <g id="patch_56">
    <path d="M 339.564332 244.24 
L 344.611562 244.24 
L 344.611562 194.834709 
L 339.564332 194.834709 
z
" clip-path="url(#p2d0bc0f315)" style="opacity: 0.6"/>
   </g>
   <g id="patch_57">
    <path d="M 344.611562 244.24 
L 349.658793 244.24 
L 349.658793 207.186032 
L 344.611562 207.186032 
z
" clip-path="url(#p2d0bc0f315)" style="opacity: 0.6"/>
   </g>
   <g id="patch_58">
    <path d="M 349.658793 244.24 
L 354.706023 244.24 
L 354.706023 157.780741 
L 349.658793 157.780741 
z
" clip-path="url(#p2d0bc0f315)" style="opacity: 0.6"/>
   </g>
   <g id="patch_59">
    <path d="M 354.706023 244.24 
L 359.753253 244.24 
L 359.753253 157.780741 
L 354.706023 157.780741 
z
" clip-path="url(#p2d0bc0f315)" style="opacity: 0.6"/>
   </g>
   <g id="patch_60">
    <path d="M 359.753253 244.24 
L 364.800483 244.24 
L 364.800483 120.726772 
L 359.753253 120.726772 
z
" clip-path="url(#p2d0bc0f315)" style="opacity: 0.6"/>
   </g>
   <g id="patch_61">
    <path d="M 364.800483 244.24 
L 369.847713 244.24 
L 369.847713 120.726772 
L 364.800483 120.726772 
z
" clip-path="url(#p2d0bc0f315)" style="opacity: 0.6"/>
   </g>
   <g id="patch_62">
    <path d="M 369.847713 244.24 
L 374.894943 244.24 
L 374.894943 46.618836 
L 369.847713 46.618836 
z
" clip-path="url(#p2d0bc0f315)" style="opacity: 0.6"/>
   </g>
   <g id="patch_63">
    <path d="M 374.894943 244.24 
L 379.942173 244.24 
L 379.942173 46.618836 
L 374.894943 46.618836 
z
" clip-path="url(#p2d0bc0f315)" style="opacity: 0.6"/>
   </g>
   <g id="patch_64">
    <path d="M 379.942173 244.24 
L 384.989403 244.24 
L 384.989403 21.91619 
L 379.942173 21.91619 
z
" clip-path="url(#p2d0bc0f315)" style="opacity: 0.6"/>
   </g>
   <g id="patch_65">
    <path d="M 384.989403 244.24 
L 390.036634 244.24 
L 390.036634 194.834709 
L 384.989403 194.834709 
z
" clip-path="url(#p2d0bc0f315)" style="opacity: 0.6"/>
   </g>
   <g id="patch_66">
    <path d="M 390.036634 244.24 
L 395.083864 244.24 
L 395.083864 207.186032 
L 390.036634 207.186032 
z
" clip-path="url(#p2d0bc0f315)" style="opacity: 0.6"/>
   </g>
   <g id="matplotlib.axis_1">
    <g id="xtick_1">
     <g id="line2d_1">
      <path d="M 65.07043 244.24 
L 65.07043 10.8 
" clip-path="url(#p2d0bc0f315)" style="fill: none; stroke-dasharray: 2.96,1.28; stroke-dashoffset: 0; stroke: #b0b0b0; stroke-opacity: 0.7; stroke-width: 0.8"/>
     </g>
     <g id="line2d_2">
      <defs>
       <path id="m73c036d096" d="M 0 0 
L 0 3.5 
" style="stroke: #000000; stroke-width: 0.8"/>
      </defs>
      <g>
       <use xlink:href="#m73c036d096" x="65.07043" y="244.24" style="stroke: #000000; stroke-width: 0.8"/>
      </g>
     </g>
     <g id="text_1">
      <!-- 45 -->
      <g transform="translate(58.70793 258.838437) scale(0.1 -0.1)">
       <defs>
        <path id="DejaVuSans-34" d="M 2419 4116 
L 825 1625 
L 2419 1625 
L 2419 4116 
z
M 2253 4666 
L 3047 4666 
L 3047 1625 
L 3713 1625 
L 3713 1100 
L 3047 1100 
L 3047 0 
L 2419 0 
L 2419 1100 
L 313 1100 
L 313 1709 
L 2253 4666 
z
" transform="scale(0.015625)"/>
        <path id="DejaVuSans-35" d="M 691 4666 
L 3169 4666 
L 3169 4134 
L 1269 4134 
L 1269 2991 
Q 1406 3038 1543 3061 
Q 1681 3084 1819 3084 
Q 2600 3084 3056 2656 
Q 3513 2228 3513 1497 
Q 3513 744 3044 326 
Q 2575 -91 1722 -91 
Q 1428 -91 1123 -41 
Q 819 9 494 109 
L 494 744 
Q 775 591 1075 516 
Q 1375 441 1709 441 
Q 2250 441 2565 725 
Q 2881 1009 2881 1497 
Q 2881 1984 2565 2268 
Q 2250 2553 1709 2553 
Q 1456 2553 1204 2497 
Q 953 2441 691 2322 
L 691 4666 
z
" transform="scale(0.015625)"/>
       </defs>
       <use xlink:href="#DejaVuSans-34"/>
       <use xlink:href="#DejaVuSans-35" transform="translate(63.623047 0)"/>
      </g>
     </g>
    </g>
    <g id="xtick_2">
     <g id="line2d_3">
      <path d="M 116.890586 244.24 
L 116.890586 10.8 
" clip-path="url(#p2d0bc0f315)" style="fill: none; stroke-dasharray: 2.96,1.28; stroke-dashoffset: 0; stroke: #b0b0b0; stroke-opacity: 0.7; stroke-width: 0.8"/>
     </g>
     <g id="line2d_4">
      <g>
       <use xlink:href="#m73c036d096" x="116.890586" y="244.24" style="stroke: #000000; stroke-width: 0.8"/>
      </g>
     </g>
     <g id="text_2">
      <!-- 50 -->
      <g transform="translate(110.528086 258.838437) scale(0.1 -0.1)">
       <defs>
        <path id="DejaVuSans-30" d="M 2034 4250 
Q 1547 4250 1301 3770 
Q 1056 3291 1056 2328 
Q 1056 1369 1301 889 
Q 1547 409 2034 409 
Q 2525 409 2770 889 
Q 3016 1369 3016 2328 
Q 3016 3291 2770 3770 
Q 2525 4250 2034 4250 
z
M 2034 4750 
Q 2819 4750 3233 4129 
Q 3647 3509 3647 2328 
Q 3647 1150 3233 529 
Q 2819 -91 2034 -91 
Q 1250 -91 836 529 
Q 422 1150 422 2328 
Q 422 3509 836 4129 
Q 1250 4750 2034 4750 
z
" transform="scale(0.015625)"/>
       </defs>
       <use xlink:href="#DejaVuSans-35"/>
       <use xlink:href="#DejaVuSans-30" transform="translate(63.623047 0)"/>
      </g>
     </g>
    </g>
    <g id="xtick_3">
     <g id="line2d_5">
      <path d="M 168.710741 244.24 
L 168.710741 10.8 
" clip-path="url(#p2d0bc0f315)" style="fill: none; stroke-dasharray: 2.96,1.28; stroke-dashoffset: 0; stroke: #b0b0b0; stroke-opacity: 0.7; stroke-width: 0.8"/>
     </g>
     <g id="line2d_6">
      <g>
       <use xlink:href="#m73c036d096" x="168.710741" y="244.24" style="stroke: #000000; stroke-width: 0.8"/>
      </g>
     </g>
     <g id="text_3">
      <!-- 55 -->
      <g transform="translate(162.348241 258.838437) scale(0.1 -0.1)">
       <use xlink:href="#DejaVuSans-35"/>
       <use xlink:href="#DejaVuSans-35" transform="translate(63.623047 0)"/>
      </g>
     </g>
    </g>
    <g id="xtick_4">
     <g id="line2d_7">
      <path d="M 220.530896 244.24 
L 220.530896 10.8 
" clip-path="url(#p2d0bc0f315)" style="fill: none; stroke-dasharray: 2.96,1.28; stroke-dashoffset: 0; stroke: #b0b0b0; stroke-opacity: 0.7; stroke-width: 0.8"/>
     </g>
     <g id="line2d_8">
      <g>
       <use xlink:href="#m73c036d096" x="220.530896" y="244.24" style="stroke: #000000; stroke-width: 0.8"/>
      </g>
     </g>
     <g id="text_4">
      <!-- 60 -->
      <g transform="translate(214.168396 258.838437) scale(0.1 -0.1)">
       <defs>
        <path id="DejaVuSans-36" d="M 2113 2584 
Q 1688 2584 1439 2293 
Q 1191 2003 1191 1497 
Q 1191 994 1439 701 
Q 1688 409 2113 409 
Q 2538 409 2786 701 
Q 3034 994 3034 1497 
Q 3034 2003 2786 2293 
Q 2538 2584 2113 2584 
z
M 3366 4563 
L 3366 3988 
Q 3128 4100 2886 4159 
Q 2644 4219 2406 4219 
Q 1781 4219 1451 3797 
Q 1122 3375 1075 2522 
Q 1259 2794 1537 2939 
Q 1816 3084 2150 3084 
Q 2853 3084 3261 2657 
Q 3669 2231 3669 1497 
Q 3669 778 3244 343 
Q 2819 -91 2113 -91 
Q 1303 -91 875 529 
Q 447 1150 447 2328 
Q 447 3434 972 4092 
Q 1497 4750 2381 4750 
Q 2619 4750 2861 4703 
Q 3103 4656 3366 4563 
z
" transform="scale(0.015625)"/>
       </defs>
       <use xlink:href="#DejaVuSans-36"/>
       <use xlink:href="#DejaVuSans-30" transform="translate(63.623047 0)"/>
      </g>
     </g>
    </g>
    <g id="xtick_5">
     <g id="line2d_9">
      <path d="M 272.351051 244.24 
L 272.351051 10.8 
" clip-path="url(#p2d0bc0f315)" style="fill: none; stroke-dasharray: 2.96,1.28; stroke-dashoffset: 0; stroke: #b0b0b0; stroke-opacity: 0.7; stroke-width: 0.8"/>
     </g>
     <g id="line2d_10">
      <g>
       <use xlink:href="#m73c036d096" x="272.351051" y="244.24" style="stroke: #000000; stroke-width: 0.8"/>
      </g>
     </g>
     <g id="text_5">
      <!-- 65 -->
      <g transform="translate(265.988551 258.838437) scale(0.1 -0.1)">
       <use xlink:href="#DejaVuSans-36"/>
       <use xlink:href="#DejaVuSans-35" transform="translate(63.623047 0)"/>
      </g>
     </g>
    </g>
    <g id="xtick_6">
     <g id="line2d_11">
      <path d="M 324.171207 244.24 
L 324.171207 10.8 
" clip-path="url(#p2d0bc0f315)" style="fill: none; stroke-dasharray: 2.96,1.28; stroke-dashoffset: 0; stroke: #b0b0b0; stroke-opacity: 0.7; stroke-width: 0.8"/>
     </g>
     <g id="line2d_12">
      <g>
       <use xlink:href="#m73c036d096" x="324.171207" y="244.24" style="stroke: #000000; stroke-width: 0.8"/>
      </g>
     </g>
     <g id="text_6">
      <!-- 70 -->
      <g transform="translate(317.808707 258.838437) scale(0.1 -0.1)">
       <defs>
        <path id="DejaVuSans-37" d="M 525 4666 
L 3525 4666 
L 3525 4397 
L 1831 0 
L 1172 0 
L 2766 4134 
L 525 4134 
L 525 4666 
z
" transform="scale(0.015625)"/>
       </defs>
       <use xlink:href="#DejaVuSans-37"/>
       <use xlink:href="#DejaVuSans-30" transform="translate(63.623047 0)"/>
      </g>
     </g>
    </g>
    <g id="xtick_7">
     <g id="line2d_13">
      <path d="M 375.991362 244.24 
L 375.991362 10.8 
" clip-path="url(#p2d0bc0f315)" style="fill: none; stroke-dasharray: 2.96,1.28; stroke-dashoffset: 0; stroke: #b0b0b0; stroke-opacity: 0.7; stroke-width: 0.8"/>
     </g>
     <g id="line2d_14">
      <g>
       <use xlink:href="#m73c036d096" x="375.991362" y="244.24" style="stroke: #000000; stroke-width: 0.8"/>
      </g>
     </g>
     <g id="text_7">
      <!-- 75 -->
      <g transform="translate(369.628862 258.838437) scale(0.1 -0.1)">
       <use xlink:href="#DejaVuSans-37"/>
       <use xlink:href="#DejaVuSans-35" transform="translate(63.623047 0)"/>
      </g>
     </g>
    </g>
    <g id="text_8">
     <!-- Latency (μs) -->
     <g transform="translate(196.32375 274.03625) scale(0.12 -0.12)">
      <defs>
       <path id="DejaVuSans-4c" d="M 628 4666 
L 1259 4666 
L 1259 531 
L 3531 531 
L 3531 0 
L 628 0 
L 628 4666 
z
" transform="scale(0.015625)"/>
       <path id="DejaVuSans-61" d="M 2194 1759 
Q 1497 1759 1228 1600 
Q 959 1441 959 1056 
Q 959 750 1161 570 
Q 1363 391 1709 391 
Q 2188 391 2477 730 
Q 2766 1069 2766 1631 
L 2766 1759 
L 2194 1759 
z
M 3341 1997 
L 3341 0 
L 2766 0 
L 2766 531 
Q 2569 213 2275 61 
Q 1981 -91 1556 -91 
Q 1019 -91 701 211 
Q 384 513 384 1019 
Q 384 1609 779 1909 
Q 1175 2209 1959 2209 
L 2766 2209 
L 2766 2266 
Q 2766 2663 2505 2880 
Q 2244 3097 1772 3097 
Q 1472 3097 1187 3025 
Q 903 2953 641 2809 
L 641 3341 
Q 956 3463 1253 3523 
Q 1550 3584 1831 3584 
Q 2591 3584 2966 3190 
Q 3341 2797 3341 1997 
z
" transform="scale(0.015625)"/>
       <path id="DejaVuSans-74" d="M 1172 4494 
L 1172 3500 
L 2356 3500 
L 2356 3053 
L 1172 3053 
L 1172 1153 
Q 1172 725 1289 603 
Q 1406 481 1766 481 
L 2356 481 
L 2356 0 
L 1766 0 
Q 1100 0 847 248 
Q 594 497 594 1153 
L 594 3053 
L 172 3053 
L 172 3500 
L 594 3500 
L 594 4494 
L 1172 4494 
z
" transform="scale(0.015625)"/>
       <path id="DejaVuSans-65" d="M 3597 1894 
L 3597 1613 
L 953 1613 
Q 991 1019 1311 708 
Q 1631 397 2203 397 
Q 2534 397 2845 478 
Q 3156 559 3463 722 
L 3463 178 
Q 3153 47 2828 -22 
Q 2503 -91 2169 -91 
Q 1331 -91 842 396 
Q 353 884 353 1716 
Q 353 2575 817 3079 
Q 1281 3584 2069 3584 
Q 2775 3584 3186 3129 
Q 3597 2675 3597 1894 
z
M 3022 2063 
Q 3016 2534 2758 2815 
Q 2500 3097 2075 3097 
Q 1594 3097 1305 2825 
Q 1016 2553 972 2059 
L 3022 2063 
z
" transform="scale(0.015625)"/>
       <path id="DejaVuSans-6e" d="M 3513 2113 
L 3513 0 
L 2938 0 
L 2938 2094 
Q 2938 2591 2744 2837 
Q 2550 3084 2163 3084 
Q 1697 3084 1428 2787 
Q 1159 2491 1159 1978 
L 1159 0 
L 581 0 
L 581 3500 
L 1159 3500 
L 1159 2956 
Q 1366 3272 1645 3428 
Q 1925 3584 2291 3584 
Q 2894 3584 3203 3211 
Q 3513 2838 3513 2113 
z
" transform="scale(0.015625)"/>
       <path id="DejaVuSans-63" d="M 3122 3366 
L 3122 2828 
Q 2878 2963 2633 3030 
Q 2388 3097 2138 3097 
Q 1578 3097 1268 2742 
Q 959 2388 959 1747 
Q 959 1106 1268 751 
Q 1578 397 2138 397 
Q 2388 397 2633 464 
Q 2878 531 3122 666 
L 3122 134 
Q 2881 22 2623 -34 
Q 2366 -91 2075 -91 
Q 1284 -91 818 406 
Q 353 903 353 1747 
Q 353 2603 823 3093 
Q 1294 3584 2113 3584 
Q 2378 3584 2631 3529 
Q 2884 3475 3122 3366 
z
" transform="scale(0.015625)"/>
       <path id="DejaVuSans-79" d="M 2059 -325 
Q 1816 -950 1584 -1140 
Q 1353 -1331 966 -1331 
L 506 -1331 
L 506 -850 
L 844 -850 
Q 1081 -850 1212 -737 
Q 1344 -625 1503 -206 
L 1606 56 
L 191 3500 
L 800 3500 
L 1894 763 
L 2988 3500 
L 3597 3500 
L 2059 -325 
z
" transform="scale(0.015625)"/>
       <path id="DejaVuSans-20" transform="scale(0.015625)"/>
       <path id="DejaVuSans-28" d="M 1984 4856 
Q 1566 4138 1362 3434 
Q 1159 2731 1159 2009 
Q 1159 1288 1364 580 
Q 1569 -128 1984 -844 
L 1484 -844 
Q 1016 -109 783 600 
Q 550 1309 550 2009 
Q 550 2706 781 3412 
Q 1013 4119 1484 4856 
L 1984 4856 
z
" transform="scale(0.015625)"/>
       <path id="DejaVuSans-3bc" d="M 544 -1331 
L 544 3500 
L 1119 3500 
L 1119 1325 
Q 1119 872 1334 640 
Q 1550 409 1972 409 
Q 2434 409 2667 671 
Q 2900 934 2900 1459 
L 2900 3500 
L 3475 3500 
L 3475 806 
Q 3475 619 3529 530 
Q 3584 441 3700 441 
Q 3728 441 3778 458 
Q 3828 475 3916 513 
L 3916 50 
Q 3788 -22 3673 -56 
Q 3559 -91 3450 -91 
Q 3234 -91 3106 31 
Q 2978 153 2931 403 
Q 2775 156 2548 32 
Q 2322 -91 2016 -91 
Q 1697 -91 1473 31 
Q 1250 153 1119 397 
L 1119 -1331 
L 544 -1331 
z
" transform="scale(0.015625)"/>
       <path id="DejaVuSans-73" d="M 2834 3397 
L 2834 2853 
Q 2591 2978 2328 3040 
Q 2066 3103 1784 3103 
Q 1356 3103 1142 2972 
Q 928 2841 928 2578 
Q 928 2378 1081 2264 
Q 1234 2150 1697 2047 
L 1894 2003 
Q 2506 1872 2764 1633 
Q 3022 1394 3022 966 
Q 3022 478 2636 193 
Q 2250 -91 1575 -91 
Q 1294 -91 989 -36 
Q 684 19 347 128 
L 347 722 
Q 666 556 975 473 
Q 1284 391 1588 391 
Q 1994 391 2212 530 
Q 2431 669 2431 922 
Q 2431 1156 2273 1281 
Q 2116 1406 1581 1522 
L 1381 1569 
Q 847 1681 609 1914 
Q 372 2147 372 2553 
Q 372 3047 722 3315 
Q 1072 3584 1716 3584 
Q 2034 3584 2315 3537 
Q 2597 3491 2834 3397 
z
" transform="scale(0.015625)"/>
       <path id="DejaVuSans-29" d="M 513 4856 
L 1013 4856 
Q 1481 4119 1714 3412 
Q 1947 2706 1947 2009 
Q 1947 1309 1714 600 
Q 1481 -109 1013 -844 
L 513 -844 
Q 928 -128 1133 580 
Q 1338 1288 1338 2009 
Q 1338 2731 1133 3434 
Q 928 4138 513 4856 
z
" transform="scale(0.015625)"/>
      </defs>
      <use xlink:href="#DejaVuSans-4c"/>
      <use xlink:href="#DejaVuSans-61" transform="translate(55.712891 0)"/>
      <use xlink:href="#DejaVuSans-74" transform="translate(116.992188 0)"/>
      <use xlink:href="#DejaVuSans-65" transform="translate(156.201172 0)"/>
      <use xlink:href="#DejaVuSans-6e" transform="translate(217.724609 0)"/>
      <use xlink:href="#DejaVuSans-63" transform="translate(281.103516 0)"/>
      <use xlink:href="#DejaVuSans-79" transform="translate(336.083984 0)"/>
      <use xlink:href="#DejaVuSans-20" transform="translate(395.263672 0)"/>
      <use xlink:href="#DejaVuSans-28" transform="translate(427.050781 0)"/>
      <use xlink:href="#DejaVuSans-3bc" transform="translate(466.064453 0)"/>
      <use xlink:href="#DejaVuSans-73" transform="translate(529.6875 0)"/>
      <use xlink:href="#DejaVuSans-29" transform="translate(581.787109 0)"/>
     </g>
    </g>
   </g>
   <g id="matplotlib.axis_2">
    <g id="ytick_1">
     <g id="line2d_15">
      <path d="M 55.91 244.24 
L 411.235 244.24 
" clip-path="url(#p2d0bc0f315)" style="fill: none; stroke-dasharray: 2.96,1.28; stroke-dashoffset: 0; stroke: #b0b0b0; stroke-opacity: 0.7; stroke-width: 0.8"/>
     </g>
     <g id="line2d_16">
      <defs>
       <path id="m8137d9ea0f" d="M 0 0 
L -3.5 0 
" style="stroke: #000000; stroke-width: 0.8"/>
      </defs>
      <g>
       <use xlink:href="#m8137d9ea0f" x="55.91" y="244.24" style="stroke: #000000; stroke-width: 0.8"/>
      </g>
     </g>
     <g id="text_9">
      <!-- 0.0 -->
      <g transform="translate(33.006875 248.039219) scale(0.1 -0.1)">
       <defs>
        <path id="DejaVuSans-2e" d="M 684 794 
L 1344 794 
L 1344 0 
L 684 0 
L 684 794 
z
" transform="scale(0.015625)"/>
       </defs>
       <use xlink:href="#DejaVuSans-30"/>
       <use xlink:href="#DejaVuSans-2e" transform="translate(63.623047 0)"/>
       <use xlink:href="#DejaVuSans-30" transform="translate(95.410156 0)"/>
      </g>
     </g>
    </g>
    <g id="ytick_2">
     <g id="line2d_17">
      <path d="M 55.91 213.361693 
L 411.235 213.361693 
" clip-path="url(#p2d0bc0f315)" style="fill: none; stroke-dasharray: 2.96,1.28; stroke-dashoffset: 0; stroke: #b0b0b0; stroke-opacity: 0.7; stroke-width: 0.8"/>
     </g>
     <g id="line2d_18">
      <g>
       <use xlink:href="#m8137d9ea0f" x="55.91" y="213.361693" style="stroke: #000000; stroke-width: 0.8"/>
      </g>
     </g>
     <g id="text_10">
      <!-- 2.5 -->
      <g transform="translate(33.006875 217.160912) scale(0.1 -0.1)">
       <defs>
        <path id="DejaVuSans-32" d="M 1228 531 
L 3431 531 
L 3431 0 
L 469 0 
L 469 531 
Q 828 903 1448 1529 
Q 2069 2156 2228 2338 
Q 2531 2678 2651 2914 
Q 2772 3150 2772 3378 
Q 2772 3750 2511 3984 
Q 2250 4219 1831 4219 
Q 1534 4219 1204 4116 
Q 875 4013 500 3803 
L 500 4441 
Q 881 4594 1212 4672 
Q 1544 4750 1819 4750 
Q 2544 4750 2975 4387 
Q 3406 4025 3406 3419 
Q 3406 3131 3298 2873 
Q 3191 2616 2906 2266 
Q 2828 2175 2409 1742 
Q 1991 1309 1228 531 
z
" transform="scale(0.015625)"/>
       </defs>
       <use xlink:href="#DejaVuSans-32"/>
       <use xlink:href="#DejaVuSans-2e" transform="translate(63.623047 0)"/>
       <use xlink:href="#DejaVuSans-35" transform="translate(95.410156 0)"/>
      </g>
     </g>
    </g>
    <g id="ytick_3">
     <g id="line2d_19">
      <path d="M 55.91 182.483386 
L 411.235 182.483386 
" clip-path="url(#p2d0bc0f315)" style="fill: none; stroke-dasharray: 2.96,1.28; stroke-dashoffset: 0; stroke: #b0b0b0; stroke-opacity: 0.7; stroke-width: 0.8"/>
     </g>
     <g id="line2d_20">
      <g>
       <use xlink:href="#m8137d9ea0f" x="55.91" y="182.483386" style="stroke: #000000; stroke-width: 0.8"/>
      </g>
     </g>
     <g id="text_11">
      <!-- 5.0 -->
      <g transform="translate(33.006875 186.282605) scale(0.1 -0.1)">
       <use xlink:href="#DejaVuSans-35"/>
       <use xlink:href="#DejaVuSans-2e" transform="translate(63.623047 0)"/>
       <use xlink:href="#DejaVuSans-30" transform="translate(95.410156 0)"/>
      </g>
     </g>
    </g>
    <g id="ytick_4">
     <g id="line2d_21">
      <path d="M 55.91 151.605079 
L 411.235 151.605079 
" clip-path="url(#p2d0bc0f315)" style="fill: none; stroke-dasharray: 2.96,1.28; stroke-dashoffset: 0; stroke: #b0b0b0; stroke-opacity: 0.7; stroke-width: 0.8"/>
     </g>
     <g id="line2d_22">
      <g>
       <use xlink:href="#m8137d9ea0f" x="55.91" y="151.605079" style="stroke: #000000; stroke-width: 0.8"/>
      </g>
     </g>
     <g id="text_12">
      <!-- 7.5 -->
      <g transform="translate(33.006875 155.404298) scale(0.1 -0.1)">
       <use xlink:href="#DejaVuSans-37"/>
       <use xlink:href="#DejaVuSans-2e" transform="translate(63.623047 0)"/>
       <use xlink:href="#DejaVuSans-35" transform="translate(95.410156 0)"/>
      </g>
     </g>
    </g>
    <g id="ytick_5">
     <g id="line2d_23">
      <path d="M 55.91 120.726772 
L 411.235 120.726772 
" clip-path="url(#p2d0bc0f315)" style="fill: none; stroke-dasharray: 2.96,1.28; stroke-dashoffset: 0; stroke: #b0b0b0; stroke-opacity: 0.7; stroke-width: 0.8"/>
     </g>
     <g id="line2d_24">
      <g>
       <use xlink:href="#m8137d9ea0f" x="55.91" y="120.726772" style="stroke: #000000; stroke-width: 0.8"/>
      </g>
     </g>
     <g id="text_13">
      <!-- 10.0 -->
      <g transform="translate(26.644375 124.525991) scale(0.1 -0.1)">
       <defs>
        <path id="DejaVuSans-31" d="M 794 531 
L 1825 531 
L 1825 4091 
L 703 3866 
L 703 4441 
L 1819 4666 
L 2450 4666 
L 2450 531 
L 3481 531 
L 3481 0 
L 794 0 
L 794 531 
z
" transform="scale(0.015625)"/>
       </defs>
       <use xlink:href="#DejaVuSans-31"/>
       <use xlink:href="#DejaVuSans-30" transform="translate(63.623047 0)"/>
       <use xlink:href="#DejaVuSans-2e" transform="translate(127.246094 0)"/>
       <use xlink:href="#DejaVuSans-30" transform="translate(159.033203 0)"/>
      </g>
     </g>
    </g>
    <g id="ytick_6">
     <g id="line2d_25">
      <path d="M 55.91 89.848466 
L 411.235 89.848466 
" clip-path="url(#p2d0bc0f315)" style="fill: none; stroke-dasharray: 2.96,1.28; stroke-dashoffset: 0; stroke: #b0b0b0; stroke-opacity: 0.7; stroke-width: 0.8"/>
     </g>
     <g id="line2d_26">
      <g>
       <use xlink:href="#m8137d9ea0f" x="55.91" y="89.848466" style="stroke: #000000; stroke-width: 0.8"/>
      </g>
     </g>
     <g id="text_14">
      <!-- 12.5 -->
      <g transform="translate(26.644375 93.647684) scale(0.1 -0.1)">
       <use xlink:href="#DejaVuSans-31"/>
       <use xlink:href="#DejaVuSans-32" transform="translate(63.623047 0)"/>
       <use xlink:href="#DejaVuSans-2e" transform="translate(127.246094 0)"/>
       <use xlink:href="#DejaVuSans-35" transform="translate(159.033203 0)"/>
      </g>
     </g>
    </g>
    <g id="ytick_7">
     <g id="line2d_27">
      <path d="M 55.91 58.970159 
L 411.235 58.970159 
" clip-path="url(#p2d0bc0f315)" style="fill: none; stroke-dasharray: 2.96,1.28; stroke-dashoffset: 0; stroke: #b0b0b0; stroke-opacity: 0.7; stroke-width: 0.8"/>
     </g>
     <g id="line2d_28">
      <g>
       <use xlink:href="#m8137d9ea0f" x="55.91" y="58.970159" style="stroke: #000000; stroke-width: 0.8"/>
      </g>
     </g>
     <g id="text_15">
      <!-- 15.0 -->
      <g transform="translate(26.644375 62.769377) scale(0.1 -0.1)">
       <use xlink:href="#DejaVuSans-31"/>
       <use xlink:href="#DejaVuSans-35" transform="translate(63.623047 0)"/>
       <use xlink:href="#DejaVuSans-2e" transform="translate(127.246094 0)"/>
       <use xlink:href="#DejaVuSans-30" transform="translate(159.033203 0)"/>
      </g>
     </g>
    </g>
    <g id="ytick_8">
     <g id="line2d_29">
      <path d="M 55.91 28.091852 
L 411.235 28.091852 
" clip-path="url(#p2d0bc0f315)" style="fill: none; stroke-dasharray: 2.96,1.28; stroke-dashoffset: 0; stroke: #b0b0b0; stroke-opacity: 0.7; stroke-width: 0.8"/>
     </g>
     <g id="line2d_30">
      <g>
       <use xlink:href="#m8137d9ea0f" x="55.91" y="28.091852" style="stroke: #000000; stroke-width: 0.8"/>
      </g>
     </g>
     <g id="text_16">
      <!-- 17.5 -->
      <g transform="translate(26.644375 31.891071) scale(0.1 -0.1)">
       <use xlink:href="#DejaVuSans-31"/>
       <use xlink:href="#DejaVuSans-37" transform="translate(63.623047 0)"/>
       <use xlink:href="#DejaVuSans-2e" transform="translate(127.246094 0)"/>
       <use xlink:href="#DejaVuSans-35" transform="translate(159.033203 0)"/>
      </g>
     </g>
    </g>
    <g id="text_17">
     <!-- Frequency -->
     <g transform="translate(20.14875 158.515625) rotate(-90) scale(0.12 -0.12)">
      <defs>
       <path id="DejaVuSans-46" d="M 628 4666 
L 3309 4666 
L 3309 4134 
L 1259 4134 
L 1259 2759 
L 3109 2759 
L 3109 2228 
L 1259 2228 
L 1259 0 
L 628 0 
L 628 4666 
z
" transform="scale(0.015625)"/>
       <path id="DejaVuSans-72" d="M 2631 2963 
Q 2534 3019 2420 3045 
Q 2306 3072 2169 3072 
Q 1681 3072 1420 2755 
Q 1159 2438 1159 1844 
L 1159 0 
L 581 0 
L 581 3500 
L 1159 3500 
L 1159 2956 
Q 1341 3275 1631 3429 
Q 1922 3584 2338 3584 
Q 2397 3584 2469 3576 
Q 2541 3569 2628 3553 
L 2631 2963 
z
" transform="scale(0.015625)"/>
       <path id="DejaVuSans-71" d="M 947 1747 
Q 947 1113 1208 752 
Q 1469 391 1925 391 
Q 2381 391 2643 752 
Q 2906 1113 2906 1747 
Q 2906 2381 2643 2742 
Q 2381 3103 1925 3103 
Q 1469 3103 1208 2742 
Q 947 2381 947 1747 
z
M 2906 525 
Q 2725 213 2448 61 
Q 2172 -91 1784 -91 
Q 1150 -91 751 415 
Q 353 922 353 1747 
Q 353 2572 751 3078 
Q 1150 3584 1784 3584 
Q 2172 3584 2448 3432 
Q 2725 3281 2906 2969 
L 2906 3500 
L 3481 3500 
L 3481 -1331 
L 2906 -1331 
L 2906 525 
z
" transform="scale(0.015625)"/>
       <path id="DejaVuSans-75" d="M 544 1381 
L 544 3500 
L 1119 3500 
L 1119 1403 
Q 1119 906 1312 657 
Q 1506 409 1894 409 
Q 2359 409 2629 706 
Q 2900 1003 2900 1516 
L 2900 3500 
L 3475 3500 
L 3475 0 
L 2900 0 
L 2900 538 
Q 2691 219 2414 64 
Q 2138 -91 1772 -91 
Q 1169 -91 856 284 
Q 544 659 544 1381 
z
M 1991 3584 
L 1991 3584 
z
" transform="scale(0.015625)"/>
      </defs>
      <use xlink:href="#DejaVuSans-46"/>
      <use xlink:href="#DejaVuSans-72" transform="translate(50.269531 0)"/>
      <use xlink:href="#DejaVuSans-65" transform="translate(89.132812 0)"/>
      <use xlink:href="#DejaVuSans-71" transform="translate(150.65625 0)"/>
      <use xlink:href="#DejaVuSans-75" transform="translate(214.132812 0)"/>
      <use xlink:href="#DejaVuSans-65" transform="translate(277.511719 0)"/>
      <use xlink:href="#DejaVuSans-6e" transform="translate(339.035156 0)"/>
      <use xlink:href="#DejaVuSans-63" transform="translate(402.414062 0)"/>
      <use xlink:href="#DejaVuSans-79" transform="translate(457.394531 0)"/>
     </g>
    </g>
   </g>
   <g id="patch_67">
    <path d="M 55.91 244.24 
L 55.91 10.8 
" style="fill: none; stroke: #000000; stroke-width: 0.8; stroke-linejoin: miter; stroke-linecap: square"/>
   </g>
   <g id="patch_68">
    <path d="M 411.235 244.24 
L 411.235 10.8 
" style="fill: none; stroke: #000000; stroke-width: 0.8; stroke-linejoin: miter; stroke-linecap: square"/>
   </g>
   <g id="patch_69">
    <path d="M 55.91 244.24 
L 411.235 244.24 
" style="fill: none; stroke: #000000; stroke-width: 0.8; stroke-linejoin: miter; stroke-linecap: square"/>
   </g>
   <g id="patch_70">
    <path d="M 55.91 10.8 
L 411.235 10.8 
" style="fill: none; stroke: #000000; stroke-width: 0.8; stroke-linejoin: miter; stroke-linecap: square"/>
   </g>
   <g id="legend_1">
    <g id="patch_71">
     <path d="M 62.91 33.478125 
L 146.569375 33.478125 
Q 148.569375 33.478125 148.569375 31.478125 
L 148.569375 17.8 
Q 148.569375 15.8 146.569375 15.8 
L 62.91 15.8 
Q 60.91 15.8 60.91 17.8 
L 60.91 31.478125 
Q 60.91 33.478125 62.91 33.478125 
z
" style="fill: #ffffff; opacity: 0.8; stroke: #cccccc; stroke-linejoin: miter"/>
    </g>
    <g id="patch_72">
     <path d="M 64.91 27.398438 
L 84.91 27.398438 
L 84.91 20.398438 
L 64.91 20.398438 
z
" style="opacity: 0.6"/>
    </g>
    <g id="text_18">
     <!-- Frequency -->
     <g transform="translate(92.91 27.398438) scale(0.1 -0.1)">
      <use xlink:href="#DejaVuSans-46"/>
      <use xlink:href="#DejaVuSans-72" transform="translate(50.269531 0)"/>
      <use xlink:href="#DejaVuSans-65" transform="translate(89.132812 0)"/>
      <use xlink:href="#DejaVuSans-71" transform="translate(150.65625 0)"/>
      <use xlink:href="#DejaVuSans-75" transform="translate(214.132812 0)"/>
      <use xlink:href="#DejaVuSans-65" transform="translate(277.511719 0)"/>
      <use xlink:href="#DejaVuSans-6e" transform="translate(339.035156 0)"/>
      <use xlink:href="#DejaVuSans-63" transform="translate(402.414062 0)"/>
      <use xlink:href="#DejaVuSans-79" transform="translate(457.394531 0)"/>
     </g>
    </g>
   </g>
  </g>
  <g id="axes_2">
   <g id="matplotlib.axis_3">
    <g id="ytick_9">
     <g id="line2d_31">
      <defs>
       <path id="m200d765098" d="M 0 0 
L 3.5 0 
" style="stroke: #000000; stroke-width: 0.8"/>
      </defs>
      <g>
       <use xlink:href="#m200d765098" x="411.235" y="244.24" style="stroke: #000000; stroke-width: 0.8"/>
      </g>
     </g>
     <g id="text_19">
      <!-- 0.0 -->
      <g transform="translate(418.235 248.039219) scale(0.1 -0.1)">
       <use xlink:href="#DejaVuSans-30"/>
       <use xlink:href="#DejaVuSans-2e" transform="translate(63.623047 0)"/>
       <use xlink:href="#DejaVuSans-30" transform="translate(95.410156 0)"/>
      </g>
     </g>
    </g>
    <g id="ytick_10">
     <g id="line2d_32">
      <g>
       <use xlink:href="#m200d765098" x="411.235" y="199.775238" style="stroke: #000000; stroke-width: 0.8"/>
      </g>
     </g>
     <g id="text_20">
      <!-- 0.2 -->
      <g transform="translate(418.235 203.574457) scale(0.1 -0.1)">
       <use xlink:href="#DejaVuSans-30"/>
       <use xlink:href="#DejaVuSans-2e" transform="translate(63.623047 0)"/>
       <use xlink:href="#DejaVuSans-32" transform="translate(95.410156 0)"/>
      </g>
     </g>
    </g>
    <g id="ytick_11">
     <g id="line2d_33">
      <g>
       <use xlink:href="#m200d765098" x="411.235" y="155.310476" style="stroke: #000000; stroke-width: 0.8"/>
      </g>
     </g>
     <g id="text_21">
      <!-- 0.4 -->
      <g transform="translate(418.235 159.109695) scale(0.1 -0.1)">
       <use xlink:href="#DejaVuSans-30"/>
       <use xlink:href="#DejaVuSans-2e" transform="translate(63.623047 0)"/>
       <use xlink:href="#DejaVuSans-34" transform="translate(95.410156 0)"/>
      </g>
     </g>
    </g>
    <g id="ytick_12">
     <g id="line2d_34">
      <g>
       <use xlink:href="#m200d765098" x="411.235" y="110.845714" style="stroke: #000000; stroke-width: 0.8"/>
      </g>
     </g>
     <g id="text_22">
      <!-- 0.6 -->
      <g transform="translate(418.235 114.644933) scale(0.1 -0.1)">
       <use xlink:href="#DejaVuSans-30"/>
       <use xlink:href="#DejaVuSans-2e" transform="translate(63.623047 0)"/>
       <use xlink:href="#DejaVuSans-36" transform="translate(95.410156 0)"/>
      </g>
     </g>
    </g>
    <g id="ytick_13">
     <g id="line2d_35">
      <g>
       <use xlink:href="#m200d765098" x="411.235" y="66.380952" style="stroke: #000000; stroke-width: 0.8"/>
      </g>
     </g>
     <g id="text_23">
      <!-- 0.8 -->
      <g transform="translate(418.235 70.180171) scale(0.1 -0.1)">
       <defs>
        <path id="DejaVuSans-38" d="M 2034 2216 
Q 1584 2216 1326 1975 
Q 1069 1734 1069 1313 
Q 1069 891 1326 650 
Q 1584 409 2034 409 
Q 2484 409 2743 651 
Q 3003 894 3003 1313 
Q 3003 1734 2745 1975 
Q 2488 2216 2034 2216 
z
M 1403 2484 
Q 997 2584 770 2862 
Q 544 3141 544 3541 
Q 544 4100 942 4425 
Q 1341 4750 2034 4750 
Q 2731 4750 3128 4425 
Q 3525 4100 3525 3541 
Q 3525 3141 3298 2862 
Q 3072 2584 2669 2484 
Q 3125 2378 3379 2068 
Q 3634 1759 3634 1313 
Q 3634 634 3220 271 
Q 2806 -91 2034 -91 
Q 1263 -91 848 271 
Q 434 634 434 1313 
Q 434 1759 690 2068 
Q 947 2378 1403 2484 
z
M 1172 3481 
Q 1172 3119 1398 2916 
Q 1625 2713 2034 2713 
Q 2441 2713 2670 2916 
Q 2900 3119 2900 3481 
Q 2900 3844 2670 4047 
Q 2441 4250 2034 4250 
Q 1625 4250 1398 4047 
Q 1172 3844 1172 3481 
z
" transform="scale(0.015625)"/>
       </defs>
       <use xlink:href="#DejaVuSans-30"/>
       <use xlink:href="#DejaVuSans-2e" transform="translate(63.623047 0)"/>
       <use xlink:href="#DejaVuSans-38" transform="translate(95.410156 0)"/>
      </g>
     </g>
    </g>
    <g id="ytick_14">
     <g id="line2d_36">
      <g>
       <use xlink:href="#m200d765098" x="411.235" y="21.91619" style="stroke: #000000; stroke-width: 0.8"/>
      </g>
     </g>
     <g id="text_24">
      <!-- 1.0 -->
      <g transform="translate(418.235 25.715409) scale(0.1 -0.1)">
       <use xlink:href="#DejaVuSans-31"/>
       <use xlink:href="#DejaVuSans-2e" transform="translate(63.623047 0)"/>
       <use xlink:href="#DejaVuSans-30" transform="translate(95.410156 0)"/>
      </g>
     </g>
    </g>
    <g id="text_25">
     <!-- CDF -->
     <g transform="translate(447.25625 139.780625) rotate(-90) scale(0.12 -0.12)">
      <defs>
       <path id="DejaVuSans-43" d="M 4122 4306 
L 4122 3641 
Q 3803 3938 3442 4084 
Q 3081 4231 2675 4231 
Q 1875 4231 1450 3742 
Q 1025 3253 1025 2328 
Q 1025 1406 1450 917 
Q 1875 428 2675 428 
Q 3081 428 3442 575 
Q 3803 722 4122 1019 
L 4122 359 
Q 3791 134 3420 21 
Q 3050 -91 2638 -91 
Q 1578 -91 968 557 
Q 359 1206 359 2328 
Q 359 3453 968 4101 
Q 1578 4750 2638 4750 
Q 3056 4750 3426 4639 
Q 3797 4528 4122 4306 
z
" transform="scale(0.015625)"/>
       <path id="DejaVuSans-44" d="M 1259 4147 
L 1259 519 
L 2022 519 
Q 2988 519 3436 956 
Q 3884 1394 3884 2338 
Q 3884 3275 3436 3711 
Q 2988 4147 2022 4147 
L 1259 4147 
z
M 628 4666 
L 1925 4666 
Q 3281 4666 3915 4102 
Q 4550 3538 4550 2338 
Q 4550 1131 3912 565 
Q 3275 0 1925 0 
L 628 0 
L 628 4666 
z
" transform="scale(0.015625)"/>
      </defs>
      <use xlink:href="#DejaVuSans-43"/>
      <use xlink:href="#DejaVuSans-44" transform="translate(69.824219 0)"/>
      <use xlink:href="#DejaVuSans-46" transform="translate(146.826172 0)"/>
     </g>
    </g>
   </g>
   <g id="line2d_37">
    <path d="M 74.584751 238.635198 
L 79.631982 238.012442 
L 84.679212 238.012442 
L 89.726442 238.012442 
L 94.773672 236.766931 
L 99.820902 236.766931 
L 104.868132 231.162129 
L 109.915362 225.557327 
L 114.962592 223.066304 
L 120.009822 218.084258 
L 125.057053 216.838746 
L 130.104283 213.724967 
L 135.151513 213.102212 
L 140.198743 209.988433 
L 145.245973 204.383631 
L 150.293203 202.515363 
L 155.340433 200.647096 
L 160.387663 197.533317 
L 165.434893 195.66505 
L 170.482124 193.174027 
L 175.529354 191.928515 
L 180.576584 185.078202 
L 185.623814 182.587179 
L 190.671044 179.4734 
L 195.718274 178.227888 
L 200.765504 176.359621 
L 205.812734 172.623087 
L 210.859964 168.886552 
L 215.907195 165.772773 
L 220.954425 161.413483 
L 226.001655 156.431437 
L 231.048885 153.317658 
L 236.096115 149.581123 
L 241.143345 145.844589 
L 246.190575 141.485298 
L 251.237805 138.371519 
L 256.285036 134.012229 
L 261.332266 132.766717 
L 266.379496 132.143962 
L 271.426726 126.53916 
L 276.473956 122.179869 
L 281.521186 119.688846 
L 286.568416 117.197823 
L 291.615646 114.084044 
L 296.662876 112.215777 
L 301.710107 107.856487 
L 306.757337 105.988219 
L 311.804567 102.87444 
L 316.851797 99.760662 
L 321.899027 94.15586 
L 326.946257 89.796569 
L 331.993487 84.814523 
L 337.040717 82.946256 
L 342.087947 80.455233 
L 347.135178 78.586965 
L 352.182408 74.227675 
L 357.229638 69.868385 
L 362.276868 63.640827 
L 367.324098 57.413269 
L 372.371328 47.449177 
L 377.418558 37.485085 
L 382.465788 26.275481 
L 387.513018 23.784458 
L 392.560249 21.91619 
" clip-path="url(#p2d0bc0f315)" style="fill: none; stroke: #ff0000; stroke-width: 2; stroke-linecap: square"/>
   </g>
   <g id="patch_73">
    <path d="M 55.91 244.24 
L 55.91 10.8 
" style="fill: none; stroke: #000000; stroke-width: 0.8; stroke-linejoin: miter; stroke-linecap: square"/>
   </g>
   <g id="patch_74">
    <path d="M 411.235 244.24 
L 411.235 10.8 
" style="fill: none; stroke: #000000; stroke-width: 0.8; stroke-linejoin: miter; stroke-linecap: square"/>
   </g>
   <g id="patch_75">
    <path d="M 55.91 244.24 
L 411.235 244.24 
" style="fill: none; stroke: #000000; stroke-width: 0.8; stroke-linejoin: miter; stroke-linecap: square"/>
   </g>
   <g id="patch_76">
    <path d="M 55.91 10.8 
L 411.235 10.8 
" style="fill: none; stroke: #000000; stroke-width: 0.8; stroke-linejoin: miter; stroke-linecap: square"/>
   </g>
   <g id="legend_2">
    <g id="patch_77">
     <path d="M 351.800625 239.24 
L 404.235 239.24 
Q 406.235 239.24 406.235 237.24 
L 406.235 223.561875 
Q 406.235 221.561875 404.235 221.561875 
L 351.800625 221.561875 
Q 349.800625 221.561875 349.800625 223.561875 
L 349.800625 237.24 
Q 349.800625 239.24 351.800625 239.24 
z
" style="fill: #ffffff; opacity: 0.8; stroke: #cccccc; stroke-linejoin: miter"/>
    </g>
    <g id="line2d_38">
     <path d="M 353.800625 229.660313 
L 363.800625 229.660313 
L 373.800625 229.660313 
" style="fill: none; stroke: #ff0000; stroke-width: 2; stroke-linecap: square"/>
    </g>
    <g id="text_26">
     <!-- CDF -->
     <g transform="translate(381.800625 233.160313) scale(0.1 -0.1)">
      <use xlink:href="#DejaVuSans-43"/>
      <use xlink:href="#DejaVuSans-44" transform="translate(69.824219 0)"/>
      <use xlink:href="#DejaVuSans-46" transform="translate(146.826172 0)"/>
     </g>
    </g>
   </g>
  </g>
 </g>
 <defs>
  <clipPath id="p2d0bc0f315">
   <rect x="55.91" y="10.8" width="355.325" height="233.44"/>
  </clipPath>
 </defs>
</svg>
