<?xml version="1.0" encoding="utf-8" standalone="no"?>
<!DOCTYPE svg PUBLIC "-//W3C//DTD SVG 1.1//EN"
  "http://www.w3.org/Graphics/SVG/1.1/DTD/svg11.dtd">
<svg xmlns:xlink="http://www.w3.org/1999/xlink" width="460.8pt" height="288pt" viewBox="0 0 460.8 288" xmlns="http://www.w3.org/2000/svg" version="1.1">
 <metadata>
  <rdf:RDF xmlns:dc="http://purl.org/dc/elements/1.1/" xmlns:cc="http://creativecommons.org/ns#" xmlns:rdf="http://www.w3.org/1999/02/22-rdf-syntax-ns#">
   <cc:Work>
    <dc:type rdf:resource="http://purl.org/dc/dcmitype/StillImage"/>
    <dc:date>2025-05-13T19:36:45.244601</dc:date>
    <dc:format>image/svg+xml</dc:format>
    <dc:creator>
     <cc:Agent>
      <dc:title>Matplotlib v3.10.1, https://matplotlib.org/</dc:title>
     </cc:Agent>
    </dc:creator>
   </cc:Work>
  </rdf:RDF>
 </metadata>
 <defs>
  <style type="text/css">*{stroke-linejoin: round; stroke-linecap: butt}</style>
 </defs>
 <g id="figure_1">
  <g id="patch_1">
   <path d="M 0 288 
L 460.8 288 
L 460.8 0 
L 0 0 
z
" style="fill: #ffffff"/>
  </g>
  <g id="axes_1">
   <g id="patch_2">
    <path d="M 46.37 244.24 
L 411.235 244.24 
L 411.235 10.8 
L 46.37 10.8 
z
" style="fill: #ffffff"/>
   </g>
   <g id="patch_3">
    <path d="M 62.954773 244.24 
L 68.137514 244.24 
L 68.137514 175.832674 
L 62.954773 175.832674 
z
" clip-path="url(#p8538fe4398)" style="fill: #2ca02c; opacity: 0.6"/>
   </g>
   <g id="patch_4">
    <path d="M 68.137514 244.24 
L 73.320256 244.24 
L 73.320256 244.24 
L 68.137514 244.24 
z
" clip-path="url(#p8538fe4398)" style="fill: #2ca02c; opacity: 0.6"/>
   </g>
   <g id="patch_5">
    <path d="M 73.320256 244.24 
L 78.502997 244.24 
L 78.502997 244.24 
L 73.320256 244.24 
z
" clip-path="url(#p8538fe4398)" style="fill: #2ca02c; opacity: 0.6"/>
   </g>
   <g id="patch_6">
    <path d="M 78.502997 244.24 
L 83.685739 244.24 
L 83.685739 244.24 
L 78.502997 244.24 
z
" clip-path="url(#p8538fe4398)" style="fill: #2ca02c; opacity: 0.6"/>
   </g>
   <g id="patch_7">
    <path d="M 83.685739 244.24 
L 88.86848 244.24 
L 88.86848 244.24 
L 83.685739 244.24 
z
" clip-path="url(#p8538fe4398)" style="fill: #2ca02c; opacity: 0.6"/>
   </g>
   <g id="patch_8">
    <path d="M 88.86848 244.24 
L 94.051222 244.24 
L 94.051222 244.24 
L 88.86848 244.24 
z
" clip-path="url(#p8538fe4398)" style="fill: #2ca02c; opacity: 0.6"/>
   </g>
   <g id="patch_9">
    <path d="M 94.051222 244.24 
L 99.233963 244.24 
L 99.233963 244.24 
L 94.051222 244.24 
z
" clip-path="url(#p8538fe4398)" style="fill: #2ca02c; opacity: 0.6"/>
   </g>
   <g id="patch_10">
    <path d="M 99.233963 244.24 
L 104.416705 244.24 
L 104.416705 244.24 
L 99.233963 244.24 
z
" clip-path="url(#p8538fe4398)" style="fill: #2ca02c; opacity: 0.6"/>
   </g>
   <g id="patch_11">
    <path d="M 104.416705 244.24 
L 109.599446 244.24 
L 109.599446 244.24 
L 104.416705 244.24 
z
" clip-path="url(#p8538fe4398)" style="fill: #2ca02c; opacity: 0.6"/>
   </g>
   <g id="patch_12">
    <path d="M 109.599446 244.24 
L 114.782187 244.24 
L 114.782187 244.24 
L 109.599446 244.24 
z
" clip-path="url(#p8538fe4398)" style="fill: #2ca02c; opacity: 0.6"/>
   </g>
   <g id="patch_13">
    <path d="M 114.782187 244.24 
L 119.964929 244.24 
L 119.964929 244.24 
L 114.782187 244.24 
z
" clip-path="url(#p8538fe4398)" style="fill: #2ca02c; opacity: 0.6"/>
   </g>
   <g id="patch_14">
    <path d="M 119.964929 244.24 
L 125.14767 244.24 
L 125.14767 244.24 
L 119.964929 244.24 
z
" clip-path="url(#p8538fe4398)" style="fill: #2ca02c; opacity: 0.6"/>
   </g>
   <g id="patch_15">
    <path d="M 125.14767 244.24 
L 130.330412 244.24 
L 130.330412 21.91619 
L 125.14767 21.91619 
z
" clip-path="url(#p8538fe4398)" style="fill: #2ca02c; opacity: 0.6"/>
   </g>
   <g id="patch_16">
    <path d="M 130.330412 244.24 
L 135.513153 244.24 
L 135.513153 244.24 
L 130.330412 244.24 
z
" clip-path="url(#p8538fe4398)" style="fill: #2ca02c; opacity: 0.6"/>
   </g>
   <g id="patch_17">
    <path d="M 135.513153 244.24 
L 140.695895 244.24 
L 140.695895 244.24 
L 135.513153 244.24 
z
" clip-path="url(#p8538fe4398)" style="fill: #2ca02c; opacity: 0.6"/>
   </g>
   <g id="patch_18">
    <path d="M 140.695895 244.24 
L 145.878636 244.24 
L 145.878636 244.24 
L 140.695895 244.24 
z
" clip-path="url(#p8538fe4398)" style="fill: #2ca02c; opacity: 0.6"/>
   </g>
   <g id="patch_19">
    <path d="M 145.878636 244.24 
L 151.061378 244.24 
L 151.061378 244.24 
L 145.878636 244.24 
z
" clip-path="url(#p8538fe4398)" style="fill: #2ca02c; opacity: 0.6"/>
   </g>
   <g id="patch_20">
    <path d="M 151.061378 244.24 
L 156.244119 244.24 
L 156.244119 244.24 
L 151.061378 244.24 
z
" clip-path="url(#p8538fe4398)" style="fill: #2ca02c; opacity: 0.6"/>
   </g>
   <g id="patch_21">
    <path d="M 156.244119 244.24 
L 161.426861 244.24 
L 161.426861 244.24 
L 156.244119 244.24 
z
" clip-path="url(#p8538fe4398)" style="fill: #2ca02c; opacity: 0.6"/>
   </g>
   <g id="patch_22">
    <path d="M 161.426861 244.24 
L 166.609602 244.24 
L 166.609602 244.24 
L 161.426861 244.24 
z
" clip-path="url(#p8538fe4398)" style="fill: #2ca02c; opacity: 0.6"/>
   </g>
   <g id="patch_23">
    <path d="M 166.609602 244.24 
L 171.792344 244.24 
L 171.792344 244.24 
L 166.609602 244.24 
z
" clip-path="url(#p8538fe4398)" style="fill: #2ca02c; opacity: 0.6"/>
   </g>
   <g id="patch_24">
    <path d="M 171.792344 244.24 
L 176.975085 244.24 
L 176.975085 244.24 
L 171.792344 244.24 
z
" clip-path="url(#p8538fe4398)" style="fill: #2ca02c; opacity: 0.6"/>
   </g>
   <g id="patch_25">
    <path d="M 176.975085 244.24 
L 182.157827 244.24 
L 182.157827 244.24 
L 176.975085 244.24 
z
" clip-path="url(#p8538fe4398)" style="fill: #2ca02c; opacity: 0.6"/>
   </g>
   <g id="patch_26">
    <path d="M 182.157827 244.24 
L 187.340568 244.24 
L 187.340568 244.24 
L 182.157827 244.24 
z
" clip-path="url(#p8538fe4398)" style="fill: #2ca02c; opacity: 0.6"/>
   </g>
   <g id="patch_27">
    <path d="M 187.340568 244.24 
L 192.52331 244.24 
L 192.52331 244.24 
L 187.340568 244.24 
z
" clip-path="url(#p8538fe4398)" style="fill: #2ca02c; opacity: 0.6"/>
   </g>
   <g id="patch_28">
    <path d="M 192.52331 244.24 
L 197.706051 244.24 
L 197.706051 21.91619 
L 192.52331 21.91619 
z
" clip-path="url(#p8538fe4398)" style="fill: #2ca02c; opacity: 0.6"/>
   </g>
   <g id="patch_29">
    <path d="M 197.706051 244.24 
L 202.888793 244.24 
L 202.888793 244.24 
L 197.706051 244.24 
z
" clip-path="url(#p8538fe4398)" style="fill: #2ca02c; opacity: 0.6"/>
   </g>
   <g id="patch_30">
    <path d="M 202.888793 244.24 
L 208.071534 244.24 
L 208.071534 244.24 
L 202.888793 244.24 
z
" clip-path="url(#p8538fe4398)" style="fill: #2ca02c; opacity: 0.6"/>
   </g>
   <g id="patch_31">
    <path d="M 208.071534 244.24 
L 213.254276 244.24 
L 213.254276 244.24 
L 208.071534 244.24 
z
" clip-path="url(#p8538fe4398)" style="fill: #2ca02c; opacity: 0.6"/>
   </g>
   <g id="patch_32">
    <path d="M 213.254276 244.24 
L 218.437017 244.24 
L 218.437017 244.24 
L 213.254276 244.24 
z
" clip-path="url(#p8538fe4398)" style="fill: #2ca02c; opacity: 0.6"/>
   </g>
   <g id="patch_33">
    <path d="M 218.437017 244.24 
L 223.619759 244.24 
L 223.619759 244.24 
L 218.437017 244.24 
z
" clip-path="url(#p8538fe4398)" style="fill: #2ca02c; opacity: 0.6"/>
   </g>
   <g id="patch_34">
    <path d="M 223.619759 244.24 
L 228.8025 244.24 
L 228.8025 244.24 
L 223.619759 244.24 
z
" clip-path="url(#p8538fe4398)" style="fill: #2ca02c; opacity: 0.6"/>
   </g>
   <g id="patch_35">
    <path d="M 228.8025 244.24 
L 233.985241 244.24 
L 233.985241 244.24 
L 228.8025 244.24 
z
" clip-path="url(#p8538fe4398)" style="fill: #2ca02c; opacity: 0.6"/>
   </g>
   <g id="patch_36">
    <path d="M 233.985241 244.24 
L 239.167983 244.24 
L 239.167983 244.24 
L 233.985241 244.24 
z
" clip-path="url(#p8538fe4398)" style="fill: #2ca02c; opacity: 0.6"/>
   </g>
   <g id="patch_37">
    <path d="M 239.167983 244.24 
L 244.350724 244.24 
L 244.350724 244.24 
L 239.167983 244.24 
z
" clip-path="url(#p8538fe4398)" style="fill: #2ca02c; opacity: 0.6"/>
   </g>
   <g id="patch_38">
    <path d="M 244.350724 244.24 
L 249.533466 244.24 
L 249.533466 244.24 
L 244.350724 244.24 
z
" clip-path="url(#p8538fe4398)" style="fill: #2ca02c; opacity: 0.6"/>
   </g>
   <g id="patch_39">
    <path d="M 249.533466 244.24 
L 254.716207 244.24 
L 254.716207 244.24 
L 249.533466 244.24 
z
" clip-path="url(#p8538fe4398)" style="fill: #2ca02c; opacity: 0.6"/>
   </g>
   <g id="patch_40">
    <path d="M 254.716207 244.24 
L 259.898949 244.24 
L 259.898949 244.24 
L 254.716207 244.24 
z
" clip-path="url(#p8538fe4398)" style="fill: #2ca02c; opacity: 0.6"/>
   </g>
   <g id="patch_41">
    <path d="M 259.898949 244.24 
L 265.08169 244.24 
L 265.08169 210.036337 
L 259.898949 210.036337 
z
" clip-path="url(#p8538fe4398)" style="fill: #2ca02c; opacity: 0.6"/>
   </g>
   <g id="patch_42">
    <path d="M 265.08169 244.24 
L 270.264432 244.24 
L 270.264432 244.24 
L 265.08169 244.24 
z
" clip-path="url(#p8538fe4398)" style="fill: #2ca02c; opacity: 0.6"/>
   </g>
   <g id="patch_43">
    <path d="M 270.264432 244.24 
L 275.447173 244.24 
L 275.447173 244.24 
L 270.264432 244.24 
z
" clip-path="url(#p8538fe4398)" style="fill: #2ca02c; opacity: 0.6"/>
   </g>
   <g id="patch_44">
    <path d="M 275.447173 244.24 
L 280.629915 244.24 
L 280.629915 244.24 
L 275.447173 244.24 
z
" clip-path="url(#p8538fe4398)" style="fill: #2ca02c; opacity: 0.6"/>
   </g>
   <g id="patch_45">
    <path d="M 280.629915 244.24 
L 285.812656 244.24 
L 285.812656 244.24 
L 280.629915 244.24 
z
" clip-path="url(#p8538fe4398)" style="fill: #2ca02c; opacity: 0.6"/>
   </g>
   <g id="patch_46">
    <path d="M 285.812656 244.24 
L 290.995398 244.24 
L 290.995398 244.24 
L 285.812656 244.24 
z
" clip-path="url(#p8538fe4398)" style="fill: #2ca02c; opacity: 0.6"/>
   </g>
   <g id="patch_47">
    <path d="M 290.995398 244.24 
L 296.178139 244.24 
L 296.178139 244.24 
L 290.995398 244.24 
z
" clip-path="url(#p8538fe4398)" style="fill: #2ca02c; opacity: 0.6"/>
   </g>
   <g id="patch_48">
    <path d="M 296.178139 244.24 
L 301.360881 244.24 
L 301.360881 244.24 
L 296.178139 244.24 
z
" clip-path="url(#p8538fe4398)" style="fill: #2ca02c; opacity: 0.6"/>
   </g>
   <g id="patch_49">
    <path d="M 301.360881 244.24 
L 306.543622 244.24 
L 306.543622 244.24 
L 301.360881 244.24 
z
" clip-path="url(#p8538fe4398)" style="fill: #2ca02c; opacity: 0.6"/>
   </g>
   <g id="patch_50">
    <path d="M 306.543622 244.24 
L 311.726364 244.24 
L 311.726364 244.24 
L 306.543622 244.24 
z
" clip-path="url(#p8538fe4398)" style="fill: #2ca02c; opacity: 0.6"/>
   </g>
   <g id="patch_51">
    <path d="M 311.726364 244.24 
L 316.909105 244.24 
L 316.909105 244.24 
L 311.726364 244.24 
z
" clip-path="url(#p8538fe4398)" style="fill: #2ca02c; opacity: 0.6"/>
   </g>
   <g id="patch_52">
    <path d="M 316.909105 244.24 
L 322.091847 244.24 
L 322.091847 244.24 
L 316.909105 244.24 
z
" clip-path="url(#p8538fe4398)" style="fill: #2ca02c; opacity: 0.6"/>
   </g>
   <g id="patch_53">
    <path d="M 322.091847 244.24 
L 327.274588 244.24 
L 327.274588 244.24 
L 322.091847 244.24 
z
" clip-path="url(#p8538fe4398)" style="fill: #2ca02c; opacity: 0.6"/>
   </g>
   <g id="patch_54">
    <path d="M 327.274588 244.24 
L 332.45733 244.24 
L 332.45733 210.036337 
L 327.274588 210.036337 
z
" clip-path="url(#p8538fe4398)" style="fill: #2ca02c; opacity: 0.6"/>
   </g>
   <g id="patch_55">
    <path d="M 332.45733 244.24 
L 337.640071 244.24 
L 337.640071 244.24 
L 332.45733 244.24 
z
" clip-path="url(#p8538fe4398)" style="fill: #2ca02c; opacity: 0.6"/>
   </g>
   <g id="patch_56">
    <path d="M 337.640071 244.24 
L 342.822812 244.24 
L 342.822812 244.24 
L 337.640071 244.24 
z
" clip-path="url(#p8538fe4398)" style="fill: #2ca02c; opacity: 0.6"/>
   </g>
   <g id="patch_57">
    <path d="M 342.822813 244.24 
L 348.005554 244.24 
L 348.005554 244.24 
L 342.822813 244.24 
z
" clip-path="url(#p8538fe4398)" style="fill: #2ca02c; opacity: 0.6"/>
   </g>
   <g id="patch_58">
    <path d="M 348.005554 244.24 
L 353.188295 244.24 
L 353.188295 244.24 
L 348.005554 244.24 
z
" clip-path="url(#p8538fe4398)" style="fill: #2ca02c; opacity: 0.6"/>
   </g>
   <g id="patch_59">
    <path d="M 353.188295 244.24 
L 358.371037 244.24 
L 358.371037 244.24 
L 353.188295 244.24 
z
" clip-path="url(#p8538fe4398)" style="fill: #2ca02c; opacity: 0.6"/>
   </g>
   <g id="patch_60">
    <path d="M 358.371037 244.24 
L 363.553778 244.24 
L 363.553778 244.24 
L 358.371037 244.24 
z
" clip-path="url(#p8538fe4398)" style="fill: #2ca02c; opacity: 0.6"/>
   </g>
   <g id="patch_61">
    <path d="M 363.553778 244.24 
L 368.73652 244.24 
L 368.73652 244.24 
L 363.553778 244.24 
z
" clip-path="url(#p8538fe4398)" style="fill: #2ca02c; opacity: 0.6"/>
   </g>
   <g id="patch_62">
    <path d="M 368.73652 244.24 
L 373.919261 244.24 
L 373.919261 244.24 
L 368.73652 244.24 
z
" clip-path="url(#p8538fe4398)" style="fill: #2ca02c; opacity: 0.6"/>
   </g>
   <g id="patch_63">
    <path d="M 373.919261 244.24 
L 379.102003 244.24 
L 379.102003 244.24 
L 373.919261 244.24 
z
" clip-path="url(#p8538fe4398)" style="fill: #2ca02c; opacity: 0.6"/>
   </g>
   <g id="patch_64">
    <path d="M 379.102003 244.24 
L 384.284744 244.24 
L 384.284744 244.24 
L 379.102003 244.24 
z
" clip-path="url(#p8538fe4398)" style="fill: #2ca02c; opacity: 0.6"/>
   </g>
   <g id="patch_65">
    <path d="M 384.284744 244.24 
L 389.467486 244.24 
L 389.467486 244.24 
L 384.284744 244.24 
z
" clip-path="url(#p8538fe4398)" style="fill: #2ca02c; opacity: 0.6"/>
   </g>
   <g id="patch_66">
    <path d="M 389.467486 244.24 
L 394.650227 244.24 
L 394.650227 227.138168 
L 389.467486 227.138168 
z
" clip-path="url(#p8538fe4398)" style="fill: #2ca02c; opacity: 0.6"/>
   </g>
   <g id="matplotlib.axis_1">
    <g id="xtick_1">
     <g id="line2d_1">
      <path d="M 78.812504 244.24 
L 78.812504 10.8 
" clip-path="url(#p8538fe4398)" style="fill: none; stroke-dasharray: 2.96,1.28; stroke-dashoffset: 0; stroke: #b0b0b0; stroke-opacity: 0.7; stroke-width: 0.8"/>
     </g>
     <g id="line2d_2">
      <defs>
       <path id="m24710ebe05" d="M 0 0 
L 0 3.5 
" style="stroke: #000000; stroke-width: 0.8"/>
      </defs>
      <g>
       <use xlink:href="#m24710ebe05" x="78.812504" y="244.24" style="stroke: #000000; stroke-width: 0.8"/>
      </g>
     </g>
     <g id="text_1">
      <!-- 20.11 -->
      <g transform="translate(64.498442 258.838437) scale(0.1 -0.1)">
       <defs>
        <path id="DejaVuSans-32" d="M 1228 531 
L 3431 531 
L 3431 0 
L 469 0 
L 469 531 
Q 828 903 1448 1529 
Q 2069 2156 2228 2338 
Q 2531 2678 2651 2914 
Q 2772 3150 2772 3378 
Q 2772 3750 2511 3984 
Q 2250 4219 1831 4219 
Q 1534 4219 1204 4116 
Q 875 4013 500 3803 
L 500 4441 
Q 881 4594 1212 4672 
Q 1544 4750 1819 4750 
Q 2544 4750 2975 4387 
Q 3406 4025 3406 3419 
Q 3406 3131 3298 2873 
Q 3191 2616 2906 2266 
Q 2828 2175 2409 1742 
Q 1991 1309 1228 531 
z
" transform="scale(0.015625)"/>
        <path id="DejaVuSans-30" d="M 2034 4250 
Q 1547 4250 1301 3770 
Q 1056 3291 1056 2328 
Q 1056 1369 1301 889 
Q 1547 409 2034 409 
Q 2525 409 2770 889 
Q 3016 1369 3016 2328 
Q 3016 3291 2770 3770 
Q 2525 4250 2034 4250 
z
M 2034 4750 
Q 2819 4750 3233 4129 
Q 3647 3509 3647 2328 
Q 3647 1150 3233 529 
Q 2819 -91 2034 -91 
Q 1250 -91 836 529 
Q 422 1150 422 2328 
Q 422 3509 836 4129 
Q 1250 4750 2034 4750 
z
" transform="scale(0.015625)"/>
        <path id="DejaVuSans-2e" d="M 684 794 
L 1344 794 
L 1344 0 
L 684 0 
L 684 794 
z
" transform="scale(0.015625)"/>
        <path id="DejaVuSans-31" d="M 794 531 
L 1825 531 
L 1825 4091 
L 703 3866 
L 703 4441 
L 1819 4666 
L 2450 4666 
L 2450 531 
L 3481 531 
L 3481 0 
L 794 0 
L 794 531 
z
" transform="scale(0.015625)"/>
       </defs>
       <use xlink:href="#DejaVuSans-32"/>
       <use xlink:href="#DejaVuSans-30" transform="translate(63.623047 0)"/>
       <use xlink:href="#DejaVuSans-2e" transform="translate(127.246094 0)"/>
       <use xlink:href="#DejaVuSans-31" transform="translate(159.033203 0)"/>
       <use xlink:href="#DejaVuSans-31" transform="translate(222.65625 0)"/>
      </g>
     </g>
    </g>
    <g id="xtick_2">
     <g id="line2d_3">
      <path d="M 145.027528 244.24 
L 145.027528 10.8 
" clip-path="url(#p8538fe4398)" style="fill: none; stroke-dasharray: 2.96,1.28; stroke-dashoffset: 0; stroke: #b0b0b0; stroke-opacity: 0.7; stroke-width: 0.8"/>
     </g>
     <g id="line2d_4">
      <g>
       <use xlink:href="#m24710ebe05" x="145.027528" y="244.24" style="stroke: #000000; stroke-width: 0.8"/>
      </g>
     </g>
     <g id="text_2">
      <!-- 20.12 -->
      <g transform="translate(130.713466 258.838437) scale(0.1 -0.1)">
       <use xlink:href="#DejaVuSans-32"/>
       <use xlink:href="#DejaVuSans-30" transform="translate(63.623047 0)"/>
       <use xlink:href="#DejaVuSans-2e" transform="translate(127.246094 0)"/>
       <use xlink:href="#DejaVuSans-31" transform="translate(159.033203 0)"/>
       <use xlink:href="#DejaVuSans-32" transform="translate(222.65625 0)"/>
      </g>
     </g>
    </g>
    <g id="xtick_3">
     <g id="line2d_5">
      <path d="M 211.242552 244.24 
L 211.242552 10.8 
" clip-path="url(#p8538fe4398)" style="fill: none; stroke-dasharray: 2.96,1.28; stroke-dashoffset: 0; stroke: #b0b0b0; stroke-opacity: 0.7; stroke-width: 0.8"/>
     </g>
     <g id="line2d_6">
      <g>
       <use xlink:href="#m24710ebe05" x="211.242552" y="244.24" style="stroke: #000000; stroke-width: 0.8"/>
      </g>
     </g>
     <g id="text_3">
      <!-- 20.13 -->
      <g transform="translate(196.92849 258.838437) scale(0.1 -0.1)">
       <defs>
        <path id="DejaVuSans-33" d="M 2597 2516 
Q 3050 2419 3304 2112 
Q 3559 1806 3559 1356 
Q 3559 666 3084 287 
Q 2609 -91 1734 -91 
Q 1441 -91 1130 -33 
Q 819 25 488 141 
L 488 750 
Q 750 597 1062 519 
Q 1375 441 1716 441 
Q 2309 441 2620 675 
Q 2931 909 2931 1356 
Q 2931 1769 2642 2001 
Q 2353 2234 1838 2234 
L 1294 2234 
L 1294 2753 
L 1863 2753 
Q 2328 2753 2575 2939 
Q 2822 3125 2822 3475 
Q 2822 3834 2567 4026 
Q 2313 4219 1838 4219 
Q 1578 4219 1281 4162 
Q 984 4106 628 3988 
L 628 4550 
Q 988 4650 1302 4700 
Q 1616 4750 1894 4750 
Q 2613 4750 3031 4423 
Q 3450 4097 3450 3541 
Q 3450 3153 3228 2886 
Q 3006 2619 2597 2516 
z
" transform="scale(0.015625)"/>
       </defs>
       <use xlink:href="#DejaVuSans-32"/>
       <use xlink:href="#DejaVuSans-30" transform="translate(63.623047 0)"/>
       <use xlink:href="#DejaVuSans-2e" transform="translate(127.246094 0)"/>
       <use xlink:href="#DejaVuSans-31" transform="translate(159.033203 0)"/>
       <use xlink:href="#DejaVuSans-33" transform="translate(222.65625 0)"/>
      </g>
     </g>
    </g>
    <g id="xtick_4">
     <g id="line2d_7">
      <path d="M 277.457576 244.24 
L 277.457576 10.8 
" clip-path="url(#p8538fe4398)" style="fill: none; stroke-dasharray: 2.96,1.28; stroke-dashoffset: 0; stroke: #b0b0b0; stroke-opacity: 0.7; stroke-width: 0.8"/>
     </g>
     <g id="line2d_8">
      <g>
       <use xlink:href="#m24710ebe05" x="277.457576" y="244.24" style="stroke: #000000; stroke-width: 0.8"/>
      </g>
     </g>
     <g id="text_4">
      <!-- 20.14 -->
      <g transform="translate(263.143514 258.838437) scale(0.1 -0.1)">
       <defs>
        <path id="DejaVuSans-34" d="M 2419 4116 
L 825 1625 
L 2419 1625 
L 2419 4116 
z
M 2253 4666 
L 3047 4666 
L 3047 1625 
L 3713 1625 
L 3713 1100 
L 3047 1100 
L 3047 0 
L 2419 0 
L 2419 1100 
L 313 1100 
L 313 1709 
L 2253 4666 
z
" transform="scale(0.015625)"/>
       </defs>
       <use xlink:href="#DejaVuSans-32"/>
       <use xlink:href="#DejaVuSans-30" transform="translate(63.623047 0)"/>
       <use xlink:href="#DejaVuSans-2e" transform="translate(127.246094 0)"/>
       <use xlink:href="#DejaVuSans-31" transform="translate(159.033203 0)"/>
       <use xlink:href="#DejaVuSans-34" transform="translate(222.65625 0)"/>
      </g>
     </g>
    </g>
    <g id="xtick_5">
     <g id="line2d_9">
      <path d="M 343.6726 244.24 
L 343.6726 10.8 
" clip-path="url(#p8538fe4398)" style="fill: none; stroke-dasharray: 2.96,1.28; stroke-dashoffset: 0; stroke: #b0b0b0; stroke-opacity: 0.7; stroke-width: 0.8"/>
     </g>
     <g id="line2d_10">
      <g>
       <use xlink:href="#m24710ebe05" x="343.6726" y="244.24" style="stroke: #000000; stroke-width: 0.8"/>
      </g>
     </g>
     <g id="text_5">
      <!-- 20.15 -->
      <g transform="translate(329.358538 258.838437) scale(0.1 -0.1)">
       <defs>
        <path id="DejaVuSans-35" d="M 691 4666 
L 3169 4666 
L 3169 4134 
L 1269 4134 
L 1269 2991 
Q 1406 3038 1543 3061 
Q 1681 3084 1819 3084 
Q 2600 3084 3056 2656 
Q 3513 2228 3513 1497 
Q 3513 744 3044 326 
Q 2575 -91 1722 -91 
Q 1428 -91 1123 -41 
Q 819 9 494 109 
L 494 744 
Q 775 591 1075 516 
Q 1375 441 1709 441 
Q 2250 441 2565 725 
Q 2881 1009 2881 1497 
Q 2881 1984 2565 2268 
Q 2250 2553 1709 2553 
Q 1456 2553 1204 2497 
Q 953 2441 691 2322 
L 691 4666 
z
" transform="scale(0.015625)"/>
       </defs>
       <use xlink:href="#DejaVuSans-32"/>
       <use xlink:href="#DejaVuSans-30" transform="translate(63.623047 0)"/>
       <use xlink:href="#DejaVuSans-2e" transform="translate(127.246094 0)"/>
       <use xlink:href="#DejaVuSans-31" transform="translate(159.033203 0)"/>
       <use xlink:href="#DejaVuSans-35" transform="translate(222.65625 0)"/>
      </g>
     </g>
    </g>
    <g id="xtick_6">
     <g id="line2d_11">
      <path d="M 409.887624 244.24 
L 409.887624 10.8 
" clip-path="url(#p8538fe4398)" style="fill: none; stroke-dasharray: 2.96,1.28; stroke-dashoffset: 0; stroke: #b0b0b0; stroke-opacity: 0.7; stroke-width: 0.8"/>
     </g>
     <g id="line2d_12">
      <g>
       <use xlink:href="#m24710ebe05" x="409.887624" y="244.24" style="stroke: #000000; stroke-width: 0.8"/>
      </g>
     </g>
     <g id="text_6">
      <!-- 20.16 -->
      <g transform="translate(395.573562 258.838437) scale(0.1 -0.1)">
       <defs>
        <path id="DejaVuSans-36" d="M 2113 2584 
Q 1688 2584 1439 2293 
Q 1191 2003 1191 1497 
Q 1191 994 1439 701 
Q 1688 409 2113 409 
Q 2538 409 2786 701 
Q 3034 994 3034 1497 
Q 3034 2003 2786 2293 
Q 2538 2584 2113 2584 
z
M 3366 4563 
L 3366 3988 
Q 3128 4100 2886 4159 
Q 2644 4219 2406 4219 
Q 1781 4219 1451 3797 
Q 1122 3375 1075 2522 
Q 1259 2794 1537 2939 
Q 1816 3084 2150 3084 
Q 2853 3084 3261 2657 
Q 3669 2231 3669 1497 
Q 3669 778 3244 343 
Q 2819 -91 2113 -91 
Q 1303 -91 875 529 
Q 447 1150 447 2328 
Q 447 3434 972 4092 
Q 1497 4750 2381 4750 
Q 2619 4750 2861 4703 
Q 3103 4656 3366 4563 
z
" transform="scale(0.015625)"/>
       </defs>
       <use xlink:href="#DejaVuSans-32"/>
       <use xlink:href="#DejaVuSans-30" transform="translate(63.623047 0)"/>
       <use xlink:href="#DejaVuSans-2e" transform="translate(127.246094 0)"/>
       <use xlink:href="#DejaVuSans-31" transform="translate(159.033203 0)"/>
       <use xlink:href="#DejaVuSans-36" transform="translate(222.65625 0)"/>
      </g>
     </g>
    </g>
    <g id="text_7">
     <!-- Latency (μs) -->
     <g transform="translate(191.55375 274.03625) scale(0.12 -0.12)">
      <defs>
       <path id="DejaVuSans-4c" d="M 628 4666 
L 1259 4666 
L 1259 531 
L 3531 531 
L 3531 0 
L 628 0 
L 628 4666 
z
" transform="scale(0.015625)"/>
       <path id="DejaVuSans-61" d="M 2194 1759 
Q 1497 1759 1228 1600 
Q 959 1441 959 1056 
Q 959 750 1161 570 
Q 1363 391 1709 391 
Q 2188 391 2477 730 
Q 2766 1069 2766 1631 
L 2766 1759 
L 2194 1759 
z
M 3341 1997 
L 3341 0 
L 2766 0 
L 2766 531 
Q 2569 213 2275 61 
Q 1981 -91 1556 -91 
Q 1019 -91 701 211 
Q 384 513 384 1019 
Q 384 1609 779 1909 
Q 1175 2209 1959 2209 
L 2766 2209 
L 2766 2266 
Q 2766 2663 2505 2880 
Q 2244 3097 1772 3097 
Q 1472 3097 1187 3025 
Q 903 2953 641 2809 
L 641 3341 
Q 956 3463 1253 3523 
Q 1550 3584 1831 3584 
Q 2591 3584 2966 3190 
Q 3341 2797 3341 1997 
z
" transform="scale(0.015625)"/>
       <path id="DejaVuSans-74" d="M 1172 4494 
L 1172 3500 
L 2356 3500 
L 2356 3053 
L 1172 3053 
L 1172 1153 
Q 1172 725 1289 603 
Q 1406 481 1766 481 
L 2356 481 
L 2356 0 
L 1766 0 
Q 1100 0 847 248 
Q 594 497 594 1153 
L 594 3053 
L 172 3053 
L 172 3500 
L 594 3500 
L 594 4494 
L 1172 4494 
z
" transform="scale(0.015625)"/>
       <path id="DejaVuSans-65" d="M 3597 1894 
L 3597 1613 
L 953 1613 
Q 991 1019 1311 708 
Q 1631 397 2203 397 
Q 2534 397 2845 478 
Q 3156 559 3463 722 
L 3463 178 
Q 3153 47 2828 -22 
Q 2503 -91 2169 -91 
Q 1331 -91 842 396 
Q 353 884 353 1716 
Q 353 2575 817 3079 
Q 1281 3584 2069 3584 
Q 2775 3584 3186 3129 
Q 3597 2675 3597 1894 
z
M 3022 2063 
Q 3016 2534 2758 2815 
Q 2500 3097 2075 3097 
Q 1594 3097 1305 2825 
Q 1016 2553 972 2059 
L 3022 2063 
z
" transform="scale(0.015625)"/>
       <path id="DejaVuSans-6e" d="M 3513 2113 
L 3513 0 
L 2938 0 
L 2938 2094 
Q 2938 2591 2744 2837 
Q 2550 3084 2163 3084 
Q 1697 3084 1428 2787 
Q 1159 2491 1159 1978 
L 1159 0 
L 581 0 
L 581 3500 
L 1159 3500 
L 1159 2956 
Q 1366 3272 1645 3428 
Q 1925 3584 2291 3584 
Q 2894 3584 3203 3211 
Q 3513 2838 3513 2113 
z
" transform="scale(0.015625)"/>
       <path id="DejaVuSans-63" d="M 3122 3366 
L 3122 2828 
Q 2878 2963 2633 3030 
Q 2388 3097 2138 3097 
Q 1578 3097 1268 2742 
Q 959 2388 959 1747 
Q 959 1106 1268 751 
Q 1578 397 2138 397 
Q 2388 397 2633 464 
Q 2878 531 3122 666 
L 3122 134 
Q 2881 22 2623 -34 
Q 2366 -91 2075 -91 
Q 1284 -91 818 406 
Q 353 903 353 1747 
Q 353 2603 823 3093 
Q 1294 3584 2113 3584 
Q 2378 3584 2631 3529 
Q 2884 3475 3122 3366 
z
" transform="scale(0.015625)"/>
       <path id="DejaVuSans-79" d="M 2059 -325 
Q 1816 -950 1584 -1140 
Q 1353 -1331 966 -1331 
L 506 -1331 
L 506 -850 
L 844 -850 
Q 1081 -850 1212 -737 
Q 1344 -625 1503 -206 
L 1606 56 
L 191 3500 
L 800 3500 
L 1894 763 
L 2988 3500 
L 3597 3500 
L 2059 -325 
z
" transform="scale(0.015625)"/>
       <path id="DejaVuSans-20" transform="scale(0.015625)"/>
       <path id="DejaVuSans-28" d="M 1984 4856 
Q 1566 4138 1362 3434 
Q 1159 2731 1159 2009 
Q 1159 1288 1364 580 
Q 1569 -128 1984 -844 
L 1484 -844 
Q 1016 -109 783 600 
Q 550 1309 550 2009 
Q 550 2706 781 3412 
Q 1013 4119 1484 4856 
L 1984 4856 
z
" transform="scale(0.015625)"/>
       <path id="DejaVuSans-3bc" d="M 544 -1331 
L 544 3500 
L 1119 3500 
L 1119 1325 
Q 1119 872 1334 640 
Q 1550 409 1972 409 
Q 2434 409 2667 671 
Q 2900 934 2900 1459 
L 2900 3500 
L 3475 3500 
L 3475 806 
Q 3475 619 3529 530 
Q 3584 441 3700 441 
Q 3728 441 3778 458 
Q 3828 475 3916 513 
L 3916 50 
Q 3788 -22 3673 -56 
Q 3559 -91 3450 -91 
Q 3234 -91 3106 31 
Q 2978 153 2931 403 
Q 2775 156 2548 32 
Q 2322 -91 2016 -91 
Q 1697 -91 1473 31 
Q 1250 153 1119 397 
L 1119 -1331 
L 544 -1331 
z
" transform="scale(0.015625)"/>
       <path id="DejaVuSans-73" d="M 2834 3397 
L 2834 2853 
Q 2591 2978 2328 3040 
Q 2066 3103 1784 3103 
Q 1356 3103 1142 2972 
Q 928 2841 928 2578 
Q 928 2378 1081 2264 
Q 1234 2150 1697 2047 
L 1894 2003 
Q 2506 1872 2764 1633 
Q 3022 1394 3022 966 
Q 3022 478 2636 193 
Q 2250 -91 1575 -91 
Q 1294 -91 989 -36 
Q 684 19 347 128 
L 347 722 
Q 666 556 975 473 
Q 1284 391 1588 391 
Q 1994 391 2212 530 
Q 2431 669 2431 922 
Q 2431 1156 2273 1281 
Q 2116 1406 1581 1522 
L 1381 1569 
Q 847 1681 609 1914 
Q 372 2147 372 2553 
Q 372 3047 722 3315 
Q 1072 3584 1716 3584 
Q 2034 3584 2315 3537 
Q 2597 3491 2834 3397 
z
" transform="scale(0.015625)"/>
       <path id="DejaVuSans-29" d="M 513 4856 
L 1013 4856 
Q 1481 4119 1714 3412 
Q 1947 2706 1947 2009 
Q 1947 1309 1714 600 
Q 1481 -109 1013 -844 
L 513 -844 
Q 928 -128 1133 580 
Q 1338 1288 1338 2009 
Q 1338 2731 1133 3434 
Q 928 4138 513 4856 
z
" transform="scale(0.015625)"/>
      </defs>
      <use xlink:href="#DejaVuSans-4c"/>
      <use xlink:href="#DejaVuSans-61" transform="translate(55.712891 0)"/>
      <use xlink:href="#DejaVuSans-74" transform="translate(116.992188 0)"/>
      <use xlink:href="#DejaVuSans-65" transform="translate(156.201172 0)"/>
      <use xlink:href="#DejaVuSans-6e" transform="translate(217.724609 0)"/>
      <use xlink:href="#DejaVuSans-63" transform="translate(281.103516 0)"/>
      <use xlink:href="#DejaVuSans-79" transform="translate(336.083984 0)"/>
      <use xlink:href="#DejaVuSans-20" transform="translate(395.263672 0)"/>
      <use xlink:href="#DejaVuSans-28" transform="translate(427.050781 0)"/>
      <use xlink:href="#DejaVuSans-3bc" transform="translate(466.064453 0)"/>
      <use xlink:href="#DejaVuSans-73" transform="translate(529.6875 0)"/>
      <use xlink:href="#DejaVuSans-29" transform="translate(581.787109 0)"/>
     </g>
    </g>
   </g>
   <g id="matplotlib.axis_2">
    <g id="ytick_1">
     <g id="line2d_13">
      <path d="M 46.37 244.24 
L 411.235 244.24 
" clip-path="url(#p8538fe4398)" style="fill: none; stroke-dasharray: 2.96,1.28; stroke-dashoffset: 0; stroke: #b0b0b0; stroke-opacity: 0.7; stroke-width: 0.8"/>
     </g>
     <g id="line2d_14">
      <defs>
       <path id="m796377989a" d="M 0 0 
L -3.5 0 
" style="stroke: #000000; stroke-width: 0.8"/>
      </defs>
      <g>
       <use xlink:href="#m796377989a" x="46.37" y="244.24" style="stroke: #000000; stroke-width: 0.8"/>
      </g>
     </g>
     <g id="text_8">
      <!-- 0 -->
      <g transform="translate(33.0075 248.039219) scale(0.1 -0.1)">
       <use xlink:href="#DejaVuSans-30"/>
      </g>
     </g>
    </g>
    <g id="ytick_2">
     <g id="line2d_15">
      <path d="M 46.37 210.036337 
L 411.235 210.036337 
" clip-path="url(#p8538fe4398)" style="fill: none; stroke-dasharray: 2.96,1.28; stroke-dashoffset: 0; stroke: #b0b0b0; stroke-opacity: 0.7; stroke-width: 0.8"/>
     </g>
     <g id="line2d_16">
      <g>
       <use xlink:href="#m796377989a" x="46.37" y="210.036337" style="stroke: #000000; stroke-width: 0.8"/>
      </g>
     </g>
     <g id="text_9">
      <!-- 2 -->
      <g transform="translate(33.0075 213.835556) scale(0.1 -0.1)">
       <use xlink:href="#DejaVuSans-32"/>
      </g>
     </g>
    </g>
    <g id="ytick_3">
     <g id="line2d_17">
      <path d="M 46.37 175.832674 
L 411.235 175.832674 
" clip-path="url(#p8538fe4398)" style="fill: none; stroke-dasharray: 2.96,1.28; stroke-dashoffset: 0; stroke: #b0b0b0; stroke-opacity: 0.7; stroke-width: 0.8"/>
     </g>
     <g id="line2d_18">
      <g>
       <use xlink:href="#m796377989a" x="46.37" y="175.832674" style="stroke: #000000; stroke-width: 0.8"/>
      </g>
     </g>
     <g id="text_10">
      <!-- 4 -->
      <g transform="translate(33.0075 179.631893) scale(0.1 -0.1)">
       <use xlink:href="#DejaVuSans-34"/>
      </g>
     </g>
    </g>
    <g id="ytick_4">
     <g id="line2d_19">
      <path d="M 46.37 141.629011 
L 411.235 141.629011 
" clip-path="url(#p8538fe4398)" style="fill: none; stroke-dasharray: 2.96,1.28; stroke-dashoffset: 0; stroke: #b0b0b0; stroke-opacity: 0.7; stroke-width: 0.8"/>
     </g>
     <g id="line2d_20">
      <g>
       <use xlink:href="#m796377989a" x="46.37" y="141.629011" style="stroke: #000000; stroke-width: 0.8"/>
      </g>
     </g>
     <g id="text_11">
      <!-- 6 -->
      <g transform="translate(33.0075 145.42823) scale(0.1 -0.1)">
       <use xlink:href="#DejaVuSans-36"/>
      </g>
     </g>
    </g>
    <g id="ytick_5">
     <g id="line2d_21">
      <path d="M 46.37 107.425348 
L 411.235 107.425348 
" clip-path="url(#p8538fe4398)" style="fill: none; stroke-dasharray: 2.96,1.28; stroke-dashoffset: 0; stroke: #b0b0b0; stroke-opacity: 0.7; stroke-width: 0.8"/>
     </g>
     <g id="line2d_22">
      <g>
       <use xlink:href="#m796377989a" x="46.37" y="107.425348" style="stroke: #000000; stroke-width: 0.8"/>
      </g>
     </g>
     <g id="text_12">
      <!-- 8 -->
      <g transform="translate(33.0075 111.224567) scale(0.1 -0.1)">
       <defs>
        <path id="DejaVuSans-38" d="M 2034 2216 
Q 1584 2216 1326 1975 
Q 1069 1734 1069 1313 
Q 1069 891 1326 650 
Q 1584 409 2034 409 
Q 2484 409 2743 651 
Q 3003 894 3003 1313 
Q 3003 1734 2745 1975 
Q 2488 2216 2034 2216 
z
M 1403 2484 
Q 997 2584 770 2862 
Q 544 3141 544 3541 
Q 544 4100 942 4425 
Q 1341 4750 2034 4750 
Q 2731 4750 3128 4425 
Q 3525 4100 3525 3541 
Q 3525 3141 3298 2862 
Q 3072 2584 2669 2484 
Q 3125 2378 3379 2068 
Q 3634 1759 3634 1313 
Q 3634 634 3220 271 
Q 2806 -91 2034 -91 
Q 1263 -91 848 271 
Q 434 634 434 1313 
Q 434 1759 690 2068 
Q 947 2378 1403 2484 
z
M 1172 3481 
Q 1172 3119 1398 2916 
Q 1625 2713 2034 2713 
Q 2441 2713 2670 2916 
Q 2900 3119 2900 3481 
Q 2900 3844 2670 4047 
Q 2441 4250 2034 4250 
Q 1625 4250 1398 4047 
Q 1172 3844 1172 3481 
z
" transform="scale(0.015625)"/>
       </defs>
       <use xlink:href="#DejaVuSans-38"/>
      </g>
     </g>
    </g>
    <g id="ytick_6">
     <g id="line2d_23">
      <path d="M 46.37 73.221685 
L 411.235 73.221685 
" clip-path="url(#p8538fe4398)" style="fill: none; stroke-dasharray: 2.96,1.28; stroke-dashoffset: 0; stroke: #b0b0b0; stroke-opacity: 0.7; stroke-width: 0.8"/>
     </g>
     <g id="line2d_24">
      <g>
       <use xlink:href="#m796377989a" x="46.37" y="73.221685" style="stroke: #000000; stroke-width: 0.8"/>
      </g>
     </g>
     <g id="text_13">
      <!-- 10 -->
      <g transform="translate(26.645 77.020904) scale(0.1 -0.1)">
       <use xlink:href="#DejaVuSans-31"/>
       <use xlink:href="#DejaVuSans-30" transform="translate(63.623047 0)"/>
      </g>
     </g>
    </g>
    <g id="ytick_7">
     <g id="line2d_25">
      <path d="M 46.37 39.018022 
L 411.235 39.018022 
" clip-path="url(#p8538fe4398)" style="fill: none; stroke-dasharray: 2.96,1.28; stroke-dashoffset: 0; stroke: #b0b0b0; stroke-opacity: 0.7; stroke-width: 0.8"/>
     </g>
     <g id="line2d_26">
      <g>
       <use xlink:href="#m796377989a" x="46.37" y="39.018022" style="stroke: #000000; stroke-width: 0.8"/>
      </g>
     </g>
     <g id="text_14">
      <!-- 12 -->
      <g transform="translate(26.645 42.817241) scale(0.1 -0.1)">
       <use xlink:href="#DejaVuSans-31"/>
       <use xlink:href="#DejaVuSans-32" transform="translate(63.623047 0)"/>
      </g>
     </g>
    </g>
    <g id="text_15">
     <!-- Frequency -->
     <g transform="translate(20.149375 158.515625) rotate(-90) scale(0.12 -0.12)">
      <defs>
       <path id="DejaVuSans-46" d="M 628 4666 
L 3309 4666 
L 3309 4134 
L 1259 4134 
L 1259 2759 
L 3109 2759 
L 3109 2228 
L 1259 2228 
L 1259 0 
L 628 0 
L 628 4666 
z
" transform="scale(0.015625)"/>
       <path id="DejaVuSans-72" d="M 2631 2963 
Q 2534 3019 2420 3045 
Q 2306 3072 2169 3072 
Q 1681 3072 1420 2755 
Q 1159 2438 1159 1844 
L 1159 0 
L 581 0 
L 581 3500 
L 1159 3500 
L 1159 2956 
Q 1341 3275 1631 3429 
Q 1922 3584 2338 3584 
Q 2397 3584 2469 3576 
Q 2541 3569 2628 3553 
L 2631 2963 
z
" transform="scale(0.015625)"/>
       <path id="DejaVuSans-71" d="M 947 1747 
Q 947 1113 1208 752 
Q 1469 391 1925 391 
Q 2381 391 2643 752 
Q 2906 1113 2906 1747 
Q 2906 2381 2643 2742 
Q 2381 3103 1925 3103 
Q 1469 3103 1208 2742 
Q 947 2381 947 1747 
z
M 2906 525 
Q 2725 213 2448 61 
Q 2172 -91 1784 -91 
Q 1150 -91 751 415 
Q 353 922 353 1747 
Q 353 2572 751 3078 
Q 1150 3584 1784 3584 
Q 2172 3584 2448 3432 
Q 2725 3281 2906 2969 
L 2906 3500 
L 3481 3500 
L 3481 -1331 
L 2906 -1331 
L 2906 525 
z
" transform="scale(0.015625)"/>
       <path id="DejaVuSans-75" d="M 544 1381 
L 544 3500 
L 1119 3500 
L 1119 1403 
Q 1119 906 1312 657 
Q 1506 409 1894 409 
Q 2359 409 2629 706 
Q 2900 1003 2900 1516 
L 2900 3500 
L 3475 3500 
L 3475 0 
L 2900 0 
L 2900 538 
Q 2691 219 2414 64 
Q 2138 -91 1772 -91 
Q 1169 -91 856 284 
Q 544 659 544 1381 
z
M 1991 3584 
L 1991 3584 
z
" transform="scale(0.015625)"/>
      </defs>
      <use xlink:href="#DejaVuSans-46"/>
      <use xlink:href="#DejaVuSans-72" transform="translate(50.269531 0)"/>
      <use xlink:href="#DejaVuSans-65" transform="translate(89.132812 0)"/>
      <use xlink:href="#DejaVuSans-71" transform="translate(150.65625 0)"/>
      <use xlink:href="#DejaVuSans-75" transform="translate(214.132812 0)"/>
      <use xlink:href="#DejaVuSans-65" transform="translate(277.511719 0)"/>
      <use xlink:href="#DejaVuSans-6e" transform="translate(339.035156 0)"/>
      <use xlink:href="#DejaVuSans-63" transform="translate(402.414062 0)"/>
      <use xlink:href="#DejaVuSans-79" transform="translate(457.394531 0)"/>
     </g>
    </g>
   </g>
   <g id="patch_67">
    <path d="M 46.37 244.24 
L 46.37 10.8 
" style="fill: none; stroke: #000000; stroke-width: 0.8; stroke-linejoin: miter; stroke-linecap: square"/>
   </g>
   <g id="patch_68">
    <path d="M 411.235 244.24 
L 411.235 10.8 
" style="fill: none; stroke: #000000; stroke-width: 0.8; stroke-linejoin: miter; stroke-linecap: square"/>
   </g>
   <g id="patch_69">
    <path d="M 46.37 244.24 
L 411.235 244.24 
" style="fill: none; stroke: #000000; stroke-width: 0.8; stroke-linejoin: miter; stroke-linecap: square"/>
   </g>
   <g id="patch_70">
    <path d="M 46.37 10.8 
L 411.235 10.8 
" style="fill: none; stroke: #000000; stroke-width: 0.8; stroke-linejoin: miter; stroke-linecap: square"/>
   </g>
   <g id="legend_1">
    <g id="patch_71">
     <path d="M 53.37 33.478125 
L 137.029375 33.478125 
Q 139.029375 33.478125 139.029375 31.478125 
L 139.029375 17.8 
Q 139.029375 15.8 137.029375 15.8 
L 53.37 15.8 
Q 51.37 15.8 51.37 17.8 
L 51.37 31.478125 
Q 51.37 33.478125 53.37 33.478125 
z
" style="fill: #ffffff; opacity: 0.8; stroke: #cccccc; stroke-linejoin: miter"/>
    </g>
    <g id="patch_72">
     <path d="M 55.37 27.398438 
L 75.37 27.398438 
L 75.37 20.398438 
L 55.37 20.398438 
z
" style="fill: #2ca02c; opacity: 0.6"/>
    </g>
    <g id="text_16">
     <!-- Frequency -->
     <g transform="translate(83.37 27.398438) scale(0.1 -0.1)">
      <use xlink:href="#DejaVuSans-46"/>
      <use xlink:href="#DejaVuSans-72" transform="translate(50.269531 0)"/>
      <use xlink:href="#DejaVuSans-65" transform="translate(89.132812 0)"/>
      <use xlink:href="#DejaVuSans-71" transform="translate(150.65625 0)"/>
      <use xlink:href="#DejaVuSans-75" transform="translate(214.132812 0)"/>
      <use xlink:href="#DejaVuSans-65" transform="translate(277.511719 0)"/>
      <use xlink:href="#DejaVuSans-6e" transform="translate(339.035156 0)"/>
      <use xlink:href="#DejaVuSans-63" transform="translate(402.414062 0)"/>
      <use xlink:href="#DejaVuSans-79" transform="translate(457.394531 0)"/>
     </g>
    </g>
   </g>
  </g>
  <g id="axes_2">
   <g id="matplotlib.axis_3">
    <g id="ytick_8">
     <g id="line2d_27">
      <defs>
       <path id="mff17af2e70" d="M 0 0 
L 3.5 0 
" style="stroke: #000000; stroke-width: 0.8"/>
      </defs>
      <g>
       <use xlink:href="#mff17af2e70" x="411.235" y="244.24" style="stroke: #000000; stroke-width: 0.8"/>
      </g>
     </g>
     <g id="text_17">
      <!-- 0.0 -->
      <g transform="translate(418.235 248.039219) scale(0.1 -0.1)">
       <use xlink:href="#DejaVuSans-30"/>
       <use xlink:href="#DejaVuSans-2e" transform="translate(63.623047 0)"/>
       <use xlink:href="#DejaVuSans-30" transform="translate(95.410156 0)"/>
      </g>
     </g>
    </g>
    <g id="ytick_9">
     <g id="line2d_28">
      <g>
       <use xlink:href="#mff17af2e70" x="411.235" y="199.775238" style="stroke: #000000; stroke-width: 0.8"/>
      </g>
     </g>
     <g id="text_18">
      <!-- 0.2 -->
      <g transform="translate(418.235 203.574457) scale(0.1 -0.1)">
       <use xlink:href="#DejaVuSans-30"/>
       <use xlink:href="#DejaVuSans-2e" transform="translate(63.623047 0)"/>
       <use xlink:href="#DejaVuSans-32" transform="translate(95.410156 0)"/>
      </g>
     </g>
    </g>
    <g id="ytick_10">
     <g id="line2d_29">
      <g>
       <use xlink:href="#mff17af2e70" x="411.235" y="155.310476" style="stroke: #000000; stroke-width: 0.8"/>
      </g>
     </g>
     <g id="text_19">
      <!-- 0.4 -->
      <g transform="translate(418.235 159.109695) scale(0.1 -0.1)">
       <use xlink:href="#DejaVuSans-30"/>
       <use xlink:href="#DejaVuSans-2e" transform="translate(63.623047 0)"/>
       <use xlink:href="#DejaVuSans-34" transform="translate(95.410156 0)"/>
      </g>
     </g>
    </g>
    <g id="ytick_11">
     <g id="line2d_30">
      <g>
       <use xlink:href="#mff17af2e70" x="411.235" y="110.845714" style="stroke: #000000; stroke-width: 0.8"/>
      </g>
     </g>
     <g id="text_20">
      <!-- 0.6 -->
      <g transform="translate(418.235 114.644933) scale(0.1 -0.1)">
       <use xlink:href="#DejaVuSans-30"/>
       <use xlink:href="#DejaVuSans-2e" transform="translate(63.623047 0)"/>
       <use xlink:href="#DejaVuSans-36" transform="translate(95.410156 0)"/>
      </g>
     </g>
    </g>
    <g id="ytick_12">
     <g id="line2d_31">
      <g>
       <use xlink:href="#mff17af2e70" x="411.235" y="66.380952" style="stroke: #000000; stroke-width: 0.8"/>
      </g>
     </g>
     <g id="text_21">
      <!-- 0.8 -->
      <g transform="translate(418.235 70.180171) scale(0.1 -0.1)">
       <use xlink:href="#DejaVuSans-30"/>
       <use xlink:href="#DejaVuSans-2e" transform="translate(63.623047 0)"/>
       <use xlink:href="#DejaVuSans-38" transform="translate(95.410156 0)"/>
      </g>
     </g>
    </g>
    <g id="ytick_13">
     <g id="line2d_32">
      <g>
       <use xlink:href="#mff17af2e70" x="411.235" y="21.91619" style="stroke: #000000; stroke-width: 0.8"/>
      </g>
     </g>
     <g id="text_22">
      <!-- 1.0 -->
      <g transform="translate(418.235 25.715409) scale(0.1 -0.1)">
       <use xlink:href="#DejaVuSans-31"/>
       <use xlink:href="#DejaVuSans-2e" transform="translate(63.623047 0)"/>
       <use xlink:href="#DejaVuSans-30" transform="translate(95.410156 0)"/>
      </g>
     </g>
    </g>
    <g id="text_23">
     <!-- CDF -->
     <g transform="translate(447.25625 139.780625) rotate(-90) scale(0.12 -0.12)">
      <defs>
       <path id="DejaVuSans-43" d="M 4122 4306 
L 4122 3641 
Q 3803 3938 3442 4084 
Q 3081 4231 2675 4231 
Q 1875 4231 1450 3742 
Q 1025 3253 1025 2328 
Q 1025 1406 1450 917 
Q 1875 428 2675 428 
Q 3081 428 3442 575 
Q 3803 722 4122 1019 
L 4122 359 
Q 3791 134 3420 21 
Q 3050 -91 2638 -91 
Q 1578 -91 968 557 
Q 359 1206 359 2328 
Q 359 3453 968 4101 
Q 1578 4750 2638 4750 
Q 3056 4750 3426 4639 
Q 3797 4528 4122 4306 
z
" transform="scale(0.015625)"/>
       <path id="DejaVuSans-44" d="M 1259 4147 
L 1259 519 
L 2022 519 
Q 2988 519 3436 956 
Q 3884 1394 3884 2338 
Q 3884 3275 3436 3711 
Q 2988 4147 2022 4147 
L 1259 4147 
z
M 628 4666 
L 1925 4666 
Q 3281 4666 3915 4102 
Q 4550 3538 4550 2338 
Q 4550 1131 3912 565 
Q 3275 0 1925 0 
L 628 0 
L 628 4666 
z
" transform="scale(0.015625)"/>
      </defs>
      <use xlink:href="#DejaVuSans-43"/>
      <use xlink:href="#DejaVuSans-44" transform="translate(69.824219 0)"/>
      <use xlink:href="#DejaVuSans-46" transform="translate(146.826172 0)"/>
     </g>
    </g>
   </g>
   <g id="line2d_33">
    <path d="M 65.546143 218.831565 
L 70.728885 218.831565 
L 75.911626 218.831565 
L 81.094368 218.831565 
L 86.277109 218.831565 
L 91.459851 218.831565 
L 96.642592 218.831565 
L 101.825334 218.831565 
L 107.008075 218.831565 
L 112.190817 218.831565 
L 117.373558 218.831565 
L 122.5563 218.831565 
L 127.739041 136.25415 
L 132.921783 136.25415 
L 138.104524 136.25415 
L 143.287266 136.25415 
L 148.470007 136.25415 
L 153.652749 136.25415 
L 158.83549 136.25415 
L 164.018232 136.25415 
L 169.200973 136.25415 
L 174.383714 136.25415 
L 179.566456 136.25415 
L 184.749197 136.25415 
L 189.931939 136.25415 
L 195.11468 53.676735 
L 200.297422 53.676735 
L 205.480163 53.676735 
L 210.662905 53.676735 
L 215.845646 53.676735 
L 221.028388 53.676735 
L 226.211129 53.676735 
L 231.393871 53.676735 
L 236.576612 53.676735 
L 241.759354 53.676735 
L 246.942095 53.676735 
L 252.124837 53.676735 
L 257.307578 53.676735 
L 262.49032 40.972517 
L 267.673061 40.972517 
L 272.855803 40.972517 
L 278.038544 40.972517 
L 283.221286 40.972517 
L 288.404027 40.972517 
L 293.586768 40.972517 
L 298.76951 40.972517 
L 303.952251 40.972517 
L 309.134993 40.972517 
L 314.317734 40.972517 
L 319.500476 40.972517 
L 324.683217 40.972517 
L 329.865959 28.268299 
L 335.0487 28.268299 
L 340.231442 28.268299 
L 345.414183 28.268299 
L 350.596925 28.268299 
L 355.779666 28.268299 
L 360.962408 28.268299 
L 366.145149 28.268299 
L 371.327891 28.268299 
L 376.510632 28.268299 
L 381.693374 28.268299 
L 386.876115 28.268299 
L 392.058857 21.91619 
" clip-path="url(#p8538fe4398)" style="fill: none; stroke: #ff0000; stroke-width: 2; stroke-linecap: square"/>
   </g>
   <g id="patch_73">
    <path d="M 46.37 244.24 
L 46.37 10.8 
" style="fill: none; stroke: #000000; stroke-width: 0.8; stroke-linejoin: miter; stroke-linecap: square"/>
   </g>
   <g id="patch_74">
    <path d="M 411.235 244.24 
L 411.235 10.8 
" style="fill: none; stroke: #000000; stroke-width: 0.8; stroke-linejoin: miter; stroke-linecap: square"/>
   </g>
   <g id="patch_75">
    <path d="M 46.37 244.24 
L 411.235 244.24 
" style="fill: none; stroke: #000000; stroke-width: 0.8; stroke-linejoin: miter; stroke-linecap: square"/>
   </g>
   <g id="patch_76">
    <path d="M 46.37 10.8 
L 411.235 10.8 
" style="fill: none; stroke: #000000; stroke-width: 0.8; stroke-linejoin: miter; stroke-linecap: square"/>
   </g>
   <g id="legend_2">
    <g id="patch_77">
     <path d="M 351.800625 239.24 
L 404.235 239.24 
Q 406.235 239.24 406.235 237.24 
L 406.235 223.561875 
Q 406.235 221.561875 404.235 221.561875 
L 351.800625 221.561875 
Q 349.800625 221.561875 349.800625 223.561875 
L 349.800625 237.24 
Q 349.800625 239.24 351.800625 239.24 
z
" style="fill: #ffffff; opacity: 0.8; stroke: #cccccc; stroke-linejoin: miter"/>
    </g>
    <g id="line2d_34">
     <path d="M 353.800625 229.660313 
L 363.800625 229.660313 
L 373.800625 229.660313 
" style="fill: none; stroke: #ff0000; stroke-width: 2; stroke-linecap: square"/>
    </g>
    <g id="text_24">
     <!-- CDF -->
     <g transform="translate(381.800625 233.160313) scale(0.1 -0.1)">
      <use xlink:href="#DejaVuSans-43"/>
      <use xlink:href="#DejaVuSans-44" transform="translate(69.824219 0)"/>
      <use xlink:href="#DejaVuSans-46" transform="translate(146.826172 0)"/>
     </g>
    </g>
   </g>
  </g>
 </g>
 <defs>
  <clipPath id="p8538fe4398">
   <rect x="46.37" y="10.8" width="364.865" height="233.44"/>
  </clipPath>
 </defs>
</svg>
